<svg width="147" height="144" viewBox="0 0 147 144" fill="none" xmlns="http://www.w3.org/2000/svg">
<g clip-path="url(#clip0_111_149)">
<path d="M88.88 118.209C89.6 122.439 91.62 126.589 95.14 128.869C97.5772 130.251 100.273 131.116 103.06 131.409C109.164 132.409 115.335 132.941 121.52 132.999C126.52 132.999 131.37 133.739 135.77 130.599C138.552 128.599 140.539 125.681 141.38 122.359C141.845 120.293 142.026 118.174 141.92 116.059C141.85 113.529 141.55 110.989 141.29 108.489C132.9 107.429 123.84 108.409 115.29 107.919C106.74 107.429 98.21 106.639 89.71 105.619C89.47 105.619 89.16 105.619 89.06 105.839C88.96 106.059 88.16 113.999 88.88 118.209Z" fill="#D9D9D9" stroke="#1B383C" stroke-width="2" stroke-miterlimit="10"/>
<path d="M86.26 101.829V101.499C86.2781 101.169 86.426 100.86 86.6715 100.639C86.917 100.418 87.24 100.303 87.57 100.319L97.17 100.889V100.819C97.19 100.254 97.3974 99.7115 97.7594 99.277C98.1215 98.8426 98.6177 98.5408 99.17 98.4192C100.266 98.2292 101.39 98.2701 102.47 98.5392C111.22 100.049 120.2 99.0392 129.08 98.8692C130.603 98.7394 132.137 98.9337 133.58 99.4392C134.318 99.8248 134.967 100.362 135.484 101.015C136.001 101.668 136.374 102.422 136.58 103.229L143.87 103.659C144.032 103.669 144.19 103.712 144.335 103.784C144.48 103.856 144.609 103.957 144.714 104.08C144.82 104.203 144.899 104.346 144.948 104.501C144.998 104.655 145.015 104.818 145 104.979L144.75 108.399C144.724 108.726 144.574 109.031 144.331 109.251C144.087 109.47 143.768 109.588 143.44 109.579L87.07 106.229C86.755 106.191 86.4672 106.032 86.2674 105.786C86.0677 105.54 85.9717 105.225 86 104.909C86.1906 103.894 86.2777 102.862 86.26 101.829Z" fill="#FF9820" stroke="#1B383C" stroke-width="2" stroke-miterlimit="10"/>
<path d="M73.38 99.7391C74.88 103.039 77.38 105.999 80.78 107.109C83.062 107.718 85.4455 107.847 87.78 107.489C92.9771 106.997 98.1288 106.108 103.19 104.829C107.27 103.829 111.41 103.329 114.33 99.8291C116.167 97.5958 117.164 94.7905 117.15 91.8991C117.088 90.1125 116.782 88.3428 116.24 86.6391C115.64 84.5791 114.85 82.5691 114.11 80.5791C107.02 81.5091 99.83 84.2491 92.76 85.6691C85.69 87.0891 78.53 88.2791 71.37 89.2691C71.17 89.2691 70.92 89.3691 70.89 89.5791C70.86 89.7891 71.89 96.4291 73.38 99.7391Z" fill="#D9D9D9" stroke="#1B383C" stroke-width="2" stroke-miterlimit="10"/>
<path d="M67.74 86.9195V86.6395C67.7048 86.5045 67.6982 86.3636 67.7207 86.226C67.7431 86.0883 67.7941 85.9569 67.8704 85.8401C67.9467 85.7233 68.0466 85.6238 68.1636 85.5479C68.2806 85.472 68.4123 85.4214 68.55 85.3995L76.55 83.8095C76.5544 83.7897 76.5544 83.7692 76.55 83.7495C76.4504 83.28 76.5093 82.7908 76.7174 82.3583C76.9255 81.9259 77.271 81.5746 77.7 81.3595C78.5584 80.9705 79.4877 80.7628 80.43 80.7495C87.89 80.1095 95.01 77.3695 102.24 75.3295C103.455 74.9021 104.746 74.7319 106.03 74.8295C106.72 74.982 107.371 75.2792 107.938 75.7015C108.505 76.1239 108.976 76.6617 109.32 77.2795L115.32 76.0695C115.455 76.0391 115.595 76.0371 115.731 76.0637C115.867 76.0902 115.996 76.1447 116.11 76.2237C116.223 76.3026 116.319 76.4044 116.392 76.5224C116.464 76.6405 116.511 76.7723 116.53 76.9095L117.05 79.7595C117.103 80.0324 117.047 80.3153 116.894 80.5473C116.74 80.7793 116.502 80.9417 116.23 80.9995L69.41 90.3195C69.2756 90.3483 69.1367 90.349 69.002 90.3218C68.8673 90.2945 68.7396 90.2397 68.627 90.1609C68.5144 90.0821 68.4193 89.9809 68.3475 89.8636C68.2758 89.7464 68.229 89.6156 68.21 89.4795C68.1404 88.6124 67.9829 87.7547 67.74 86.9195Z" fill="#FF9820" stroke="#1B383C" stroke-width="2" stroke-miterlimit="10"/>
<path d="M3.42001 122.499C3.99001 126.749 5.88001 130.969 9.32001 133.359C11.7134 134.823 14.3819 135.779 17.16 136.169C23.2258 137.362 29.3736 138.091 35.55 138.349C40.55 138.549 45.37 139.409 49.88 136.419C52.7073 134.514 54.7856 131.687 55.76 128.419C56.2858 126.369 56.5347 124.256 56.5 122.139C56.5 119.599 56.3 117.059 56.12 114.549C47.76 113.219 38.68 113.889 30.18 113.119C21.68 112.349 13.18 111.279 4.69001 109.979C4.45001 109.979 4.14001 109.979 4.04001 110.169C3.94001 110.359 2.84001 118.249 3.42001 122.499Z" fill="#D9D9D9" stroke="#1B383C" stroke-width="2" stroke-miterlimit="10"/>
<path d="M1.34 106.05V105.71C1.37049 105.381 1.52947 105.078 1.78233 104.867C2.03519 104.655 2.36143 104.552 2.69 104.58L12.27 105.47C12.27 105.47 12.27 105.47 12.27 105.39C12.3152 104.822 12.5482 104.286 12.9321 103.866C13.316 103.446 13.829 103.166 14.39 103.07C15.4906 102.912 16.6122 102.99 17.68 103.3C26.37 105.09 35.38 104.38 44.27 104.5C45.7939 104.425 47.3167 104.67 48.74 105.22C49.4695 105.629 50.1052 106.187 50.6063 106.857C51.1075 107.527 51.463 108.294 51.65 109.11L58.92 109.78C59.0807 109.794 59.2368 109.842 59.3789 109.918C59.5211 109.995 59.6463 110.099 59.7471 110.225C59.8479 110.351 59.9223 110.496 59.9658 110.652C60.0092 110.807 60.0209 110.97 60 111.13L59.64 114.55C59.607 114.877 59.4474 115.178 59.1951 115.39C58.9428 115.601 58.618 115.705 58.29 115.68L2.07 110.48C1.74653 110.44 1.45216 110.273 1.25153 110.016C1.05091 109.759 0.960444 109.433 1 109.11C1.21689 108.104 1.33081 107.079 1.34 106.05Z" fill="#FF9820" stroke="#1B383C" stroke-width="2" stroke-miterlimit="10"/>
<path d="M50.27 132.509C51.87 136.509 54.72 140.129 58.64 141.619C61.3162 142.449 64.1336 142.725 66.92 142.429C73.0942 142.108 79.2351 141.319 85.29 140.069C90.17 139.069 95.09 138.709 98.72 134.719C101.011 132.168 102.338 128.896 102.47 125.469C102.485 123.356 102.213 121.25 101.66 119.209C101.06 116.739 100.23 114.319 99.45 111.939C91.02 112.669 82.37 115.539 73.94 116.859C65.51 118.179 57 119.209 48.45 119.999C48.21 119.999 47.91 120.099 47.87 120.349C47.83 120.599 48.68 128.529 50.27 132.509Z" fill="#D9D9D9" stroke="#1B383C" stroke-width="2" stroke-miterlimit="10"/>
<path d="M44.25 117.06V116.73C44.1973 116.408 44.2724 116.079 44.4592 115.812C44.646 115.544 44.9298 115.361 45.25 115.3L54.75 113.83C54.7533 113.807 54.7533 113.783 54.75 113.76C54.6549 113.203 54.7465 112.631 55.0105 112.132C55.2746 111.632 55.6963 111.234 56.21 111C57.2419 110.585 58.3483 110.388 59.46 110.42C68.33 110.05 76.89 107.17 85.54 105.13C86.9994 104.685 88.5352 104.549 90.05 104.73C90.8579 104.95 91.6106 105.337 92.2599 105.866C92.9092 106.395 93.4406 107.053 93.82 107.8L101.04 106.68C101.196 106.654 101.356 106.66 101.51 106.696C101.665 106.733 101.81 106.799 101.938 106.892C102.067 106.985 102.175 107.103 102.258 107.238C102.341 107.373 102.396 107.523 102.42 107.68L102.89 111.08C102.94 111.401 102.864 111.73 102.678 111.996C102.491 112.263 102.209 112.447 101.89 112.51L46.09 121.13C45.9296 121.152 45.7663 121.143 45.6097 121.101C45.4531 121.06 45.3063 120.988 45.1778 120.889C45.0494 120.791 44.9418 120.667 44.8615 120.527C44.7812 120.386 44.7297 120.231 44.71 120.07C44.6657 119.053 44.5115 118.044 44.25 117.06Z" fill="#FF9820" stroke="#1B383C" stroke-width="2" stroke-miterlimit="10"/>
<path d="M29.82 98.8798C30.54 103.11 32.56 107.27 36.08 109.54C38.5172 110.922 41.2134 111.787 44 112.08C50.104 113.076 56.2754 113.605 62.46 113.66C67.46 113.66 72.31 114.4 76.71 111.26C79.4914 109.248 81.48 106.325 82.33 103C82.791 100.933 82.9693 98.8141 82.86 96.6998C82.79 94.1598 82.49 91.6198 82.23 89.1298C73.84 88.0698 64.78 89.0398 56.23 88.5598C47.68 88.0798 39.15 87.2698 30.65 86.2598C30.41 86.2598 30.1 86.2598 30 86.4698C29.9 86.6798 29.1 94.6498 29.82 98.8798Z" fill="#D9D9D9" stroke="#1B383C" stroke-width="2" stroke-miterlimit="10"/>
<path d="M27.2 82.4998V82.1698C27.2102 82.0056 27.2527 81.8449 27.3251 81.6971C27.3975 81.5493 27.4984 81.4173 27.622 81.3086C27.7456 81.1999 27.8894 81.1166 28.0452 81.0637C28.201 81.0107 28.3658 80.989 28.53 80.9998L38.13 81.5698V81.4998C38.1522 80.9364 38.3606 80.3962 38.7224 79.9638C39.0843 79.5313 39.5793 79.231 40.13 79.1098C41.2257 78.9166 42.3496 78.9541 43.43 79.2198C52.18 80.7298 61.16 79.7298 70.04 79.5498C71.5633 79.4251 73.0959 79.6193 74.54 80.1198C75.2782 80.5055 75.9268 81.0423 76.4437 81.6953C76.9606 82.3483 77.3341 83.1029 77.54 83.9098L84.83 84.3398C84.9943 84.3447 85.1559 84.383 85.3049 84.4523C85.4539 84.5217 85.5872 84.6207 85.6967 84.7433C85.8061 84.8659 85.8895 85.0095 85.9417 85.1653C85.9938 85.3212 86.0137 85.486 86 85.6498L85.75 89.0698C85.7294 89.3988 85.5807 89.7065 85.3358 89.9271C85.0909 90.1477 84.7693 90.2636 84.44 90.2498L28.09 86.9098C27.7695 86.877 27.4751 86.7187 27.2709 86.4695C27.0666 86.2203 26.9693 85.9005 27 85.5798C27.1709 84.5626 27.2379 83.5306 27.2 82.4998Z" fill="#FF9820" stroke="#1B383C" stroke-width="2" stroke-miterlimit="10"/>
<path d="M35.76 35.3293C37.61 40.6993 41.13 45.6793 46.21 47.8793C49.6 49.3593 53.39 49.4993 57.09 49.4893C65.2574 49.4708 73.4113 48.8256 81.48 47.5593C87.97 46.5593 94.48 46.4093 99.54 41.3693C102.733 38.1401 104.693 33.894 105.08 29.3693C105.241 26.5789 105.019 23.7796 104.42 21.0493C103.79 17.7593 102.84 14.5193 101.97 11.3193C90.8 11.7793 79.2 14.9993 68 16.2093C56.8 17.4193 45.46 18.2093 34.16 18.7193C33.84 18.7193 33.44 18.8193 33.36 19.1393C33.28 19.4593 33.91 29.9993 35.76 35.3293Z" fill="#D9D9D9" stroke="#1B383C" stroke-width="2" stroke-miterlimit="10"/>
<path d="M28.81 14.5596V14.1196C28.7648 13.6867 28.8915 13.2534 29.1627 12.913C29.4339 12.5726 29.828 12.3523 30.26 12.2996L42.86 10.9996C42.86 10.9996 42.86 10.9396 42.86 10.9096C42.7625 10.1579 42.9205 9.39524 43.3086 8.74416C43.6967 8.09308 44.2924 7.59135 45 7.31957C46.3891 6.83611 47.8641 6.64877 49.33 6.76957C61 6.84957 72.51 3.59957 84.06 1.45957C86.0216 0.96185 88.0661 0.883477 90.06 1.22957C91.62 1.60957 94.25 3.57957 94.83 5.51957L104.42 4.51957C104.632 4.50042 104.845 4.5237 105.048 4.58805C105.251 4.65239 105.439 4.75651 105.601 4.89431C105.763 5.03212 105.896 5.20084 105.992 5.39062C106.088 5.58039 106.145 5.78741 106.16 5.99957L106.57 10.5096C106.61 10.943 106.48 11.3749 106.207 11.7144C105.935 12.0538 105.542 12.2744 105.11 12.3296L30.93 20.0996C30.7168 20.1187 30.502 20.0952 30.2981 20.0303C30.0942 19.9655 29.9052 19.8606 29.7422 19.7219C29.5793 19.5831 29.4457 19.4133 29.3491 19.2223C29.2526 19.0313 29.1951 18.823 29.18 18.6096C29.1981 17.2504 29.0741 15.893 28.81 14.5596Z" fill="#FF9820" stroke="#1B383C" stroke-width="2" stroke-miterlimit="10"/>
<path d="M53 36.7197C53.3601 38.0308 54.0484 39.2285 55 40.1997C55.93 41.1397 57.31 41.8697 58.54 41.3897C59.0512 41.153 59.5075 40.8124 59.88 40.3897C62.2 38.0597 64.2 35.0597 64.07 31.7797C63.95 28.6997 60.69 23.7797 57.14 25.2797C53.59 26.7797 52.12 33.5297 53 36.7197Z" fill="white" stroke="#1B383C" stroke-width="2" stroke-miterlimit="10"/>
<path d="M72 36.2695C72.2455 37.2999 72.7676 38.2438 73.51 38.9995C74.9 40.1895 76.99 40.0595 78.72 39.4895C79.3562 39.3109 79.9463 38.9971 80.45 38.5695C81.2567 37.5825 81.6919 36.3441 81.68 35.0695C82.084 32.6662 82.0468 30.2094 81.57 27.8195C80.57 24.0695 75.57 20.2795 72.29 24.2195C70 26.9995 71 33.2795 72 36.2695Z" fill="white" stroke="#1B383C" stroke-width="2" stroke-miterlimit="10"/>
<path d="M56.35 32.7095C57.0136 32.1474 57.8605 31.8485 58.73 31.8695C59.4101 31.8069 60.0879 32.0113 60.62 32.4395C61.0976 33.0263 61.3526 33.763 61.34 34.5195C61.4764 35.1125 61.4899 35.7272 61.3799 36.3257C61.2698 36.9241 61.0384 37.4938 60.7 37.9995C59.61 39.2095 57.26 40.6095 56.1 39.1795C54.94 37.7495 55 33.9995 56.35 32.7095Z" fill="#1B383C" stroke="#1B383C" stroke-width="2" stroke-miterlimit="10"/>
<path d="M74 36.1492C73.6 34.6092 73.36 32.7392 74.53 31.6592C75.232 31.1092 76.1095 30.8321 77 30.8792C77.7326 30.8452 78.4611 31.0075 79.11 31.3492C79.5112 31.6189 79.8535 31.967 80.1165 32.3726C80.3794 32.7782 80.5575 33.2329 80.64 33.7092C80.7901 34.662 80.8103 35.6309 80.7 36.5892C80.7208 36.9192 80.6347 37.2471 80.4546 37.5245C80.2745 37.8018 80.0099 38.0139 79.7 38.1292C76.93 39.7492 74.84 39.4592 74 36.1492Z" fill="#1B383C" stroke="#1B383C" stroke-width="2" stroke-miterlimit="10"/>
<path d="M35.92 35.1699C29.2739 40.5433 24.4678 47.8544 22.1701 56.0862C19.8725 64.3181 20.1975 73.0614 23.1 81.0999" stroke="#1B383C" stroke-width="2" stroke-miterlimit="10"/>
<path d="M105.56 25.6699C117.08 32.5674 126.025 43.0464 131.028 55.506C136.032 67.9657 136.819 81.7208 133.27 94.6699" stroke="#1B383C" stroke-width="2" stroke-miterlimit="10"/>
<path d="M58.79 49.3398C58.4509 59.0141 58.7248 68.7002 59.61 78.3398" stroke="#1B383C" stroke-width="2" stroke-miterlimit="10"/>
<path d="M78.57 49C78.9506 59.0756 80.1175 69.1061 82.06 79" stroke="#1B383C" stroke-width="2" stroke-miterlimit="10"/>
</g>
<defs>
<clipPath id="clip0_111_149">
<rect width="146.09" height="143.5" fill="white"/>
</clipPath>
</defs>
</svg>
