<svg width="306" height="282" viewBox="0 0 306 282" fill="none" xmlns="http://www.w3.org/2000/svg">
<g clip-path="url(#clip0_521_509)">
<path d="M155.63 115.56C150.47 111.48 149.75 103.69 151.77 97.43C153.79 91.17 157.95 85.87 161.29 80.19C165.84 72.44 168.93 63.65 168.95 54.65C168.97 45.65 165.69 36.47 159.09 30.36" stroke="#74ED0A" stroke-width="4" stroke-miterlimit="10"/>
<path d="M55.5 234C63.63 252.81 77.72 269.79 96.63 276.34C109.24 280.7 122.93 280.17 136.24 279.12C165.657 276.807 194.852 272.24 223.57 265.46C246.7 260.01 270.12 257.72 286.95 238.16C297.539 225.702 303.434 209.93 303.61 193.58C303.69 183.47 301.61 173.49 298.93 163.78C295.75 152.08 291.47 140.67 287.43 129.39C247.31 134 206.43 148.81 166.43 156.22C126.22 163.67 85.78 169.67 45.23 174.6C44.08 174.74 42.65 175.14 42.47 176.32C42.29 177.5 47.37 215.16 55.5 234Z" fill="#D9D9D9" stroke="#1B383C" stroke-width="4" stroke-miterlimit="10"/>
<path d="M2.20992 167.07C1.80992 169.42 1.88992 172 3.20992 173.94C5.20992 176.94 9.38992 177.36 12.9199 177.11C19.6199 176.65 27.1799 175.54 27.1799 175.54C27.2967 176.303 27.5635 177.034 27.9647 177.693C28.366 178.352 28.8938 178.925 29.5177 179.379C30.1415 179.832 30.8492 180.158 31.5996 180.337C32.3501 180.516 33.1285 180.544 33.8899 180.42L299 131.93C300.543 131.629 301.906 130.734 302.797 129.438C303.687 128.142 304.033 126.548 303.76 125L301 108.84C300.888 108.075 300.622 107.341 300.22 106.681C299.818 106.021 299.287 105.448 298.659 104.997C298.031 104.547 297.319 104.227 296.565 104.057C295.811 103.888 295.03 103.872 294.27 104.01L260 110.28C257.38 103.45 247.37 97.08 241.63 96.15C234.44 95.01 227.19 96.76 220.15 98.63C179.15 109.51 138.66 124.37 96.4099 127.31C91.1299 127.72 85.6599 127.97 80.9699 130.5C76.2799 133.03 72.6599 138.69 74.2499 143.92C74.2499 144.03 74.3399 144.14 74.3599 144.25L29.2199 152.5C28.4536 152.646 27.7237 152.942 27.0717 153.371C26.4198 153.799 25.8586 154.352 25.4203 154.997C24.982 155.643 24.6751 156.368 24.5172 157.132C24.3593 157.896 24.3534 158.684 24.4999 159.45L24.7499 161.03C19.9999 160.79 6.15992 161 4.51992 162.35C3.24041 163.618 2.42647 165.281 2.20992 167.07Z" fill="#FF9820" stroke="#1B383C" stroke-width="4" stroke-miterlimit="10"/>
<path d="M153.1 176.6C157.81 178.11 161.39 182.36 163.2 187.17C165.01 191.98 165.2 197.3 164.86 202.47C164.523 209.116 162.899 215.633 160.08 221.66C157.3 227.33 152.08 232.71 146.08 231.93C142.62 231.47 139.63 228.93 137.8 225.84C136.086 222.609 135.042 219.064 134.73 215.42C133.34 204.18 134.94 170.79 153.1 176.6Z" fill="white" stroke="#1B383C" stroke-width="4" stroke-miterlimit="10"/>
<path d="M200.22 168.45C206.37 169.24 211.22 174.75 212.97 180.88C214.72 187.01 213.83 193.62 212.23 199.8C210.79 205.39 208.68 210.95 204.97 215.3C201.26 219.65 195.71 222.64 190.13 222.05C187.956 221.859 185.891 221.011 184.21 219.62C181.57 217.33 180.47 213.68 179.82 210.18C177.42 197.17 180.56 165.91 200.22 168.45Z" fill="white" stroke="#1B383C" stroke-width="4" stroke-miterlimit="10"/>
<path d="M201.42 191.61C200.89 196.05 199.29 200.32 197.65 204.53C196.01 208.74 194.26 212.9 190.5 215.74C189.683 216.442 188.626 216.8 187.55 216.74C186.02 216.52 185.21 215.08 184.72 213.81C182.221 207.42 181.398 200.498 182.33 193.7C182.702 189.815 184.169 186.115 186.56 183.03C188.56 180.63 194.56 176.29 198.36 178.35C202.16 180.41 201.8 188.46 201.42 191.61Z" fill="#1B383C" stroke="#1B383C" stroke-width="4" stroke-miterlimit="10"/>
<path d="M148.77 188.29C150.64 190.29 151.1 193.14 151.26 195.83C151.794 205.513 149.497 215.141 144.65 223.54C143.96 224.74 142.55 226.08 141.38 225.32C141.032 225.061 140.756 224.716 140.58 224.32C136.78 216.64 137.19 207.69 137.68 199.18C137.94 194.7 141.54 180.61 148.77 188.29Z" fill="#1B383C" stroke="#1B383C" stroke-width="4" stroke-miterlimit="10"/>
<path d="M281.11 167.4C284.57 179.73 288.06 192.65 285.59 205.26C284.89 208.672 283.841 212.003 282.46 215.2C279.36 222.49 274.82 229.28 268.63 234.04" stroke="#1B383C" stroke-width="4" stroke-miterlimit="10"/>
<path d="M99.1401 144.29C122.059 142.244 144.741 138.097 166.9 131.9" stroke="#1B383C" stroke-width="4" stroke-miterlimit="10"/>
<path d="M207.07 123.67C206.197 123.652 205.329 123.812 204.52 124.14L190.52 128.72" stroke="#1B383C" stroke-width="4" stroke-miterlimit="10"/>
<path d="M181.08 251.7C185.721 252.025 190.362 251.079 194.506 248.965C198.65 246.851 202.139 243.648 204.6 239.7" stroke="#1B383C" stroke-width="4" stroke-miterlimit="10"/>
<path d="M160 30.11L159.75 30.24C159.57 27.44 158.93 24.66 159.05 21.85C159.228 19.3894 159.889 16.9879 160.996 14.783C162.103 12.578 163.633 10.6129 165.5 9.00004C169.28 5.78446 173.804 3.56394 178.66 2.54004C178.76 5.97004 178.83 9.62004 177.71 12.86C176.607 15.7194 174.902 18.308 172.71 20.45C169.71 23.67 164.96 28.45 160.62 29.8C158.39 30.49 155.47 29.86 153.09 30.16C150.182 30.5261 147.334 31.2724 144.62 32.38C143.127 32.9456 141.726 33.7273 140.46 34.7C137.56 37.04 136.05 40.65 134.66 44.11C137.48 43.89 140.22 44.98 143.05 45.11C147.094 45.2046 151.017 43.7319 154 41C156.9 38.37 159.72 34.07 160 30.11Z" fill="#74ED0A" stroke="#74ED0A" stroke-width="4" stroke-miterlimit="10"/>
</g>
<defs>
<clipPath id="clip0_521_509">
<rect width="305.84" height="281.81" fill="white"/>
</clipPath>
</defs>
</svg>
