<svg width="24" height="22" viewBox="0 0 24 22" fill="none" xmlns="http://www.w3.org/2000/svg">
<path d="M5.70039 21.9571V7.41586H0.867113V21.9571H5.70081H5.70039ZM3.2846 5.43085C4.96974 5.43085 6.01884 4.31418 6.01884 2.91876C5.98716 1.49167 4.96974 0.40625 3.31669 0.40625C1.66238 0.40625 0.582031 1.49167 0.582031 2.91876C0.582031 4.31418 1.6307 5.43085 3.25292 5.43085H3.28417H3.2846ZM8.37551 21.9571H13.2084V13.8376C13.2084 13.4034 13.24 12.9684 13.3676 12.6584C13.7169 11.7896 14.5121 10.8905 15.8476 10.8905C17.5961 10.8905 18.2959 12.2238 18.2959 14.1788V21.9571H23.1288V13.6196C23.1288 9.15337 20.7446 7.07503 17.5648 7.07503C14.9577 7.07503 13.8127 8.53211 13.1767 9.52461H13.2088V7.41628H8.37593C8.43886 8.78045 8.37551 21.9575 8.37551 21.9575V21.9571Z" fill="white"/>
</svg>
