<svg width="32" height="33" viewBox="0 0 32 33" fill="none" xmlns="http://www.w3.org/2000/svg">
<path d="M0 2.30683C0 1.03347 1.05923 0 2.36511 0H29.6349C30.9412 0 32 1.03347 32 2.30683V29.8963C32 31.1701 30.9412 32.2027 29.6349 32.2027H2.36511C1.05923 32.2027 0 31.1701 0 29.8967V2.30641V2.30683Z" fill="#006699"/>
<path d="M9.70039 26.9571V12.4159H4.86711V26.9571H9.70081H9.70039ZM7.2846 10.4309C8.96974 10.4309 10.0188 9.31418 10.0188 7.91876C9.98716 6.49167 8.96974 5.40625 7.31669 5.40625C5.66238 5.40625 4.58203 6.49167 4.58203 7.91876C4.58203 9.31418 5.6307 10.4309 7.25292 10.4309H7.28417H7.2846ZM12.3755 26.9571H17.2084V18.8376C17.2084 18.4034 17.24 17.9684 17.3676 17.6584C17.7169 16.7896 18.5121 15.8905 19.8476 15.8905C21.5961 15.8905 22.2959 17.2238 22.2959 19.1788V26.9571H27.1288V18.6196C27.1288 14.1534 24.7446 12.075 21.5648 12.075C18.9577 12.075 17.8127 13.5321 17.1767 14.5246H17.2088V12.4163H12.3759C12.4389 13.7804 12.3755 26.9575 12.3755 26.9575V26.9571Z" fill="white"/>
</svg>
