<svg width="155" height="168" viewBox="0 0 155 168" fill="none" xmlns="http://www.w3.org/2000/svg">
<path d="M7.90632 50.2475C8.48632 54.5075 10.3663 58.7275 13.8163 61.1175C16.2068 62.5778 18.872 63.5308 21.6463 63.9175C27.709 65.1082 33.8533 65.8369 40.0263 66.0975C45.0263 66.3075 49.8563 67.1675 54.3563 64.1675C57.1919 62.2709 59.2726 59.4399 60.2363 56.1675C60.7939 54.1047 61.0599 51.974 61.0263 49.8375C61.0263 47.2975 60.8263 44.7575 60.6563 42.2575C52.2963 40.9175 43.2063 41.5875 34.7163 40.8275C26.2263 40.0675 17.6463 39.0075 9.18632 37.6875C8.94632 37.6875 8.63632 37.6875 8.52632 37.8775C8.41632 38.0675 7.33632 46.0075 7.90632 50.2475Z" fill="#D9D9D9" stroke="#1B383C" stroke-width="2" stroke-miterlimit="10"/>
<path d="M5.8262 33.7977V33.4677C5.83882 33.3046 5.88355 33.1457 5.95783 33C6.03211 32.8544 6.13447 32.7248 6.25901 32.6189C6.38356 32.5129 6.52783 32.4326 6.68352 32.3827C6.83922 32.3327 7.00326 32.314 7.1662 32.3277L16.7462 33.2177V33.1477C16.7888 32.58 17.0193 32.0427 17.4015 31.6207C17.7836 31.1987 18.2955 30.9161 18.8562 30.8177C19.9601 30.6597 21.0849 30.7381 22.1562 31.0477C30.8462 32.8377 39.8462 32.1377 48.7362 32.2577C50.2628 32.1785 51.7889 32.4203 53.2162 32.9677C53.9461 33.3754 54.5818 33.9327 55.0815 34.6031C55.5812 35.2734 55.9338 36.0417 56.1162 36.8577L63.3962 37.5277C63.5574 37.5437 63.7137 37.592 63.8558 37.6695C63.998 37.7471 64.1231 37.8524 64.2239 37.9792C64.3246 38.1061 64.3988 38.2518 64.4422 38.4079C64.4855 38.5639 64.4971 38.7271 64.4762 38.8877L64.1162 42.2977C64.0808 42.6258 63.919 42.9273 63.6652 43.1382C63.4113 43.3492 63.0853 43.453 62.7562 43.4277L6.5762 38.2277C6.41557 38.2103 6.25999 38.1612 6.11849 38.0832C5.97699 38.0053 5.85238 37.9 5.75191 37.7734C5.65144 37.6469 5.57709 37.5017 5.5332 37.3462C5.4893 37.1907 5.47673 37.0281 5.4962 36.8677C5.71463 35.8589 5.82525 34.8298 5.8262 33.7977Z" fill="#FF9820" stroke="#1B383C" stroke-width="2" stroke-miterlimit="10"/>
<path d="M30.5562 27.7478C30.9211 29.2147 31.581 30.5919 32.4957 31.7954C33.4103 32.9988 34.5606 34.0034 35.8762 34.7478C37.7181 35.5199 39.6992 35.9045 41.6962 35.8778C46.0974 36.0743 50.5072 35.9305 54.8862 35.4478C58.4062 35.0678 61.8862 35.1478 64.7762 32.5578C66.553 30.9032 67.7015 28.6839 68.0262 26.2778C68.1759 24.7778 68.1255 23.2645 67.8762 21.7778C67.6162 19.9878 67.1862 18.2178 66.7962 16.4678C60.7962 16.4678 54.4362 17.8678 48.3662 18.2378C42.2962 18.6078 36.1762 18.7578 30.0762 18.7478C29.9062 18.7478 29.6862 18.7478 29.6362 18.9578C29.611 21.9131 29.9196 24.8618 30.5562 27.7478Z" fill="#D9D9D9" stroke="#1B383C" stroke-width="2" stroke-miterlimit="10"/>
<path d="M27.3262 16.3786V16.1386C27.3125 15.9031 27.3917 15.6715 27.5469 15.4938C27.7022 15.3162 27.921 15.2065 28.1562 15.1886L35.0262 14.7986C35.0262 14.7986 35.0262 14.7986 35.0262 14.7386C34.9966 14.3348 35.1024 13.9327 35.327 13.5958C35.5516 13.2589 35.8821 13.0065 36.2662 12.8786C37.0274 12.6501 37.8283 12.5854 38.6162 12.6886C44.9262 13.0186 51.1962 11.5586 57.4762 10.6886C58.5383 10.4684 59.6342 10.4684 60.6962 10.6886C61.2555 10.8974 61.7646 11.2218 62.1901 11.6404C62.6157 12.0591 62.9483 12.5628 63.1662 13.1186L68.3563 12.8186C68.4712 12.8104 68.5865 12.8257 68.6953 12.8635C68.8041 12.9013 68.9041 12.9608 68.9892 13.0384C69.0743 13.1161 69.1428 13.2102 69.1904 13.3151C69.238 13.42 69.2638 13.5334 69.2662 13.6486L69.3762 16.0986C69.3848 16.3318 69.3035 16.5594 69.149 16.7344C68.9945 16.9093 68.7787 17.0182 68.5462 17.0386L28.3262 19.4186C28.2112 19.4226 28.0964 19.4037 27.9887 19.363C27.881 19.3223 27.7824 19.2607 27.6987 19.1816C27.6149 19.1026 27.5478 19.0077 27.501 18.9024C27.4542 18.7972 27.4288 18.6837 27.4262 18.5686C27.4733 17.8371 27.4397 17.1027 27.3262 16.3786Z" fill="#FF9820" stroke="#1B383C" stroke-width="2" stroke-miterlimit="10"/>
<path d="M59.3361 90.5886C61.1861 95.9486 64.7161 100.929 69.7961 103.139C73.1861 104.609 76.9761 104.749 80.6661 104.749C88.8233 104.724 96.9668 104.079 105.026 102.819C111.526 101.819 118.026 101.659 123.096 96.6186C126.293 93.3918 128.253 89.1444 128.636 84.6186C128.794 81.8277 128.568 79.0283 127.966 76.2986C127.336 72.9986 126.396 69.7586 125.526 66.5586C114.356 66.9886 102.756 70.2086 91.5261 71.4186C80.2961 72.6286 69.0261 73.4786 57.7461 74.0086C57.4261 74.0086 57.0261 74.1086 56.9461 74.4286C56.8661 74.7486 57.4961 85.2286 59.3361 90.5886Z" fill="#D9D9D9" stroke="#1B383C" stroke-width="2" stroke-miterlimit="10"/>
<path d="M52.3962 69.8076V69.3676C52.3484 68.9342 52.474 68.4995 52.7457 68.1585C53.0174 67.8175 53.4131 67.5978 53.8462 67.5476L66.4862 66.2276V66.1376C66.394 65.3905 66.5547 64.6339 66.9425 63.9887C67.3304 63.3435 67.9231 62.8467 68.6262 62.5776C69.9918 62.0965 71.4421 61.9024 72.8862 62.0076C84.6062 62.0876 96.0962 58.8476 107.636 56.7076C109.598 56.2099 111.642 56.1315 113.636 56.4776C115.206 56.8476 117.826 58.8176 118.406 60.7576L128.006 59.7576C128.219 59.7342 128.433 59.7541 128.638 59.8161C128.842 59.8781 129.032 59.9809 129.196 60.1183C129.359 60.2557 129.493 60.4248 129.59 60.6155C129.686 60.8062 129.743 61.0144 129.756 61.2276L130.166 65.7476C130.206 66.1799 130.076 66.6106 129.803 66.9485C129.53 67.2864 129.137 67.5048 128.706 67.5576L54.5062 75.3576C54.2933 75.3754 54.079 75.3509 53.8757 75.2855C53.6723 75.2201 53.4838 75.1152 53.3212 74.9767C53.1585 74.8382 53.0249 74.6689 52.9279 74.4786C52.831 74.2882 52.7726 74.0806 52.7562 73.8676C52.7776 72.5054 52.657 71.1448 52.3962 69.8076Z" fill="#FF9820" stroke="#1B383C" stroke-width="2" stroke-miterlimit="10"/>
<path d="M78.1862 90.8183C78.461 91.9012 78.8533 92.9507 79.3562 93.9483C79.6327 94.5779 80.0501 95.1356 80.5762 95.5783C81.8462 96.5783 83.7062 96.1083 85.0062 95.2083C86.1675 94.4061 87.0845 93.2987 87.6562 92.0083C89.3362 88.0083 89.0262 80.0083 83.4162 79.2883C79.9162 78.8483 78.1362 83.4283 77.8262 86.2883C77.6716 87.8077 77.7935 89.3425 78.1862 90.8183Z" fill="white" stroke="#1B383C" stroke-width="2" stroke-miterlimit="10"/>
<path d="M96.4064 90.5977C96.5678 90.9117 96.7587 91.2097 96.9764 91.4877C97.5034 92.2047 98.2122 92.768 99.0296 93.1196C99.847 93.4712 100.743 93.5982 101.626 93.4877C102.454 93.2803 103.222 92.8807 103.866 92.3212C104.511 91.7618 105.015 91.0582 105.336 90.2677C105.95 88.6695 106.288 86.9789 106.336 85.2677C106.636 81.8077 104.926 77.7277 101.116 76.9177C97.8064 76.2077 96.8564 78.5477 96.2464 81.2177C95.7911 82.9303 95.5228 84.6872 95.4464 86.4577C95.4241 87.8953 95.7537 89.3166 96.4064 90.5977Z" fill="white" stroke="#1B383C" stroke-width="2" stroke-miterlimit="10"/>
<path d="M104.416 43.1482C104.416 46.7782 105.416 50.5382 108.016 52.9582C109.839 54.4701 111.953 55.5931 114.226 56.2582C119.147 58.004 124.195 59.368 129.326 60.3382C133.456 61.1182 137.406 62.4382 141.536 60.4882C144.144 59.2399 146.232 57.1167 147.436 54.4882C148.134 52.8436 148.602 51.1106 148.826 49.3382C149.156 47.2182 149.286 45.0682 149.446 42.9482C142.626 40.8082 134.946 40.2582 127.946 38.5682C120.946 36.8782 113.946 34.9382 107.026 32.8182C106.836 32.7582 106.576 32.7182 106.456 32.8982C106.336 33.0782 104.456 39.5282 104.416 43.1482Z" fill="#D9D9D9" stroke="#1B383C" stroke-width="2" stroke-miterlimit="10"/>
<path d="M104.706 29.1478L104.776 28.8678C104.801 28.7305 104.855 28.6001 104.934 28.4848C105.012 28.3695 105.114 28.272 105.233 28.1986C105.352 28.1251 105.485 28.0773 105.623 28.0582C105.761 28.0391 105.902 28.0492 106.036 28.0878L113.926 30.0078C113.931 29.9881 113.931 29.9675 113.926 29.9478C114.03 29.4868 114.281 29.0722 114.642 28.7672C115.003 28.4621 115.454 28.2833 115.926 28.2578C116.868 28.2681 117.797 28.4723 118.656 28.8578C125.656 31.4278 133.306 31.9378 140.726 33.1278C142.009 33.2571 143.251 33.6485 144.376 34.2778C144.947 34.7025 145.421 35.2443 145.766 35.8668C146.111 36.4894 146.319 37.1784 146.376 37.8878L152.376 39.3378C152.511 39.3676 152.638 39.4251 152.75 39.5065C152.861 39.5879 152.955 39.6915 153.024 39.8108C153.094 39.9301 153.138 40.0625 153.154 40.1997C153.169 40.3369 153.157 40.4758 153.116 40.6078L152.396 43.4178C152.325 43.6856 152.153 43.9154 151.916 44.059C151.68 44.2027 151.396 44.2488 151.126 44.1878L104.786 32.9378C104.651 32.908 104.524 32.8506 104.412 32.7692C104.301 32.6878 104.207 32.5842 104.138 32.4649C104.068 32.3455 104.024 32.2131 104.009 32.076C103.993 31.9388 104.005 31.7998 104.046 31.6678C104.353 30.8531 104.575 30.0085 104.706 29.1478Z" fill="#FF9820" stroke="#1B383C" stroke-width="2" stroke-miterlimit="10"/>
<path d="M56.0761 54.1076C57.6761 58.1076 60.5261 61.7276 64.4461 63.2076C67.1211 64.0441 69.9405 64.3165 72.7261 64.0076C78.9011 63.6957 85.0428 62.9067 91.0961 61.6476C95.9661 60.6476 100.886 60.2976 104.526 56.2976C106.819 53.7513 108.146 50.4815 108.276 47.0576C108.287 44.9408 108.015 42.832 107.466 40.7876C106.866 38.3176 106.036 35.9076 105.256 33.5176C96.8261 34.2576 88.1761 37.1176 79.7461 38.4476C71.3161 39.7776 62.7461 40.7976 54.2561 41.5976C54.0161 41.5976 53.7161 41.6976 53.6661 41.9376C53.6161 42.1776 54.4861 50.1176 56.0761 54.1076Z" fill="#D9D9D9" stroke="#1B383C" stroke-width="2" stroke-miterlimit="10"/>
<path d="M50.0261 38.6577V38.3177C49.9709 37.9969 50.0452 37.6672 50.2327 37.4011C50.4201 37.1349 50.7054 36.9539 51.0261 36.8977L60.5261 35.4277C60.5261 35.4277 60.5261 35.3777 60.5261 35.3577C60.4316 34.7949 60.5278 34.2166 60.7996 33.7147C61.0714 33.2128 61.5031 32.8162 62.0261 32.5877C63.0521 32.1646 64.157 31.9668 65.2661 32.0077C74.1261 31.6377 82.6961 28.7577 91.3461 26.7077C92.8061 26.2664 94.342 26.1336 95.8561 26.3177C96.663 26.5369 97.4152 26.9224 98.0645 27.4493C98.7137 27.9763 99.2456 28.6331 99.6261 29.3777L106.836 28.2677C106.992 28.2421 107.152 28.2476 107.307 28.2841C107.461 28.3206 107.606 28.3872 107.734 28.4802C107.863 28.5732 107.971 28.6906 108.054 28.8258C108.137 28.961 108.192 29.1111 108.216 29.2677L108.696 32.6677C108.743 32.9875 108.666 33.3132 108.48 33.5775C108.294 33.8418 108.013 34.0245 107.696 34.0877L51.8661 42.7677C51.7057 42.7902 51.5424 42.7804 51.3858 42.7391C51.2292 42.6978 51.0823 42.6257 50.9539 42.527C50.8254 42.4283 50.7179 42.3051 50.6376 42.1644C50.5573 42.0237 50.5058 41.8685 50.4861 41.7077C50.4398 40.6778 50.2856 39.6555 50.0261 38.6577Z" fill="#FF9820" stroke="#1B383C" stroke-width="2" stroke-miterlimit="10"/>
<path d="M81.2462 81.2283C81.9082 80.6713 82.7513 80.376 83.6162 80.3983C84.2987 80.3258 84.9821 80.5272 85.5162 80.9583C85.9857 81.538 86.2401 82.2623 86.2362 83.0083C86.3462 84.2083 86.3962 85.5683 85.5962 86.4683C84.5062 87.6883 82.1562 89.0883 80.9962 87.6483C79.8362 86.2083 79.8862 82.5183 81.2462 81.2283Z" fill="#1B383C" stroke="#1B383C" stroke-width="2" stroke-miterlimit="10"/>
<path d="M97.566 83.0778C97.176 81.5378 96.926 79.6578 98.096 78.5878C98.8073 78.026 99.7017 77.748 100.606 77.8078C101.342 77.7685 102.075 77.931 102.726 78.2778C103.128 78.5458 103.47 78.8937 103.731 79.2997C103.993 79.7057 104.168 80.1612 104.246 80.6378C104.404 81.5864 104.428 82.5526 104.316 83.5078C104.313 83.7778 104.262 84.0452 104.166 84.2978C103.971 84.6258 103.682 84.8873 103.336 85.0478C100.506 86.6678 98.416 86.3878 97.566 83.0778Z" fill="#1B383C" stroke="#1B383C" stroke-width="2" stroke-miterlimit="10"/>
<path d="M57.8862 87.4077C46.8862 86.5177 35.8862 83.4077 26.6162 77.4077C17.3462 71.4077 9.68622 62.6477 6.02622 52.2077C3.82622 45.7677 3.12622 38.9077 2.44622 32.1277L1.12622 19.0077C0.855779 17.4364 1.02181 15.8211 1.60622 14.3377C2.02153 13.5675 2.60802 12.9028 3.32055 12.3948C4.03309 11.8869 4.85267 11.5492 5.71622 11.4077C6.07894 11.2651 6.47478 11.2289 6.85734 11.3033C7.23991 11.3777 7.59334 11.5596 7.87622 11.8277C8.08124 12.1413 8.17621 12.5142 8.14622 12.8877C8.07328 13.831 7.75999 14.7398 7.23622 15.5277C6.23968 17.2011 4.9127 18.654 3.33622 19.7977" stroke="#1B383C" stroke-width="2" stroke-miterlimit="10" stroke-linecap="round"/>
<path d="M127.586 78.828C141.926 71.828 148.886 55.218 151.696 39.498C153.908 27.1455 154.315 14.5375 152.906 2.06801C152.177 1.43444 151.257 1.06119 150.293 1.00689C149.328 0.952592 148.373 1.22031 147.576 1.76801C146.735 2.31078 146.062 3.07757 145.633 3.9821C145.203 4.88662 145.035 5.893 145.146 6.88801C145.196 7.57332 145.442 8.22972 145.856 8.77801C146.098 9.05209 146.393 9.27439 146.723 9.43151C147.054 9.58864 147.412 9.67735 147.777 9.69229C148.143 9.70724 148.507 9.64812 148.849 9.51849C149.191 9.38886 149.503 9.19141 149.766 8.93801" stroke="#1B383C" stroke-width="2" stroke-miterlimit="10" stroke-linecap="round"/>
<path d="M86.546 17.8685C87.066 21.2885 88.646 24.6685 91.456 26.5385C93.4014 27.6864 95.5635 28.4184 97.806 28.6885C102.71 29.568 107.675 30.0694 112.656 30.1885C116.656 30.2885 120.596 30.9085 124.176 28.4385C126.443 26.8553 128.081 24.5265 128.806 21.8585C129.201 20.1987 129.372 18.4937 129.316 16.7885C129.316 14.7885 129.086 12.6985 128.906 10.6885C122.156 9.68852 114.836 10.3985 107.976 9.89852C101.116 9.39852 94.226 8.64852 87.396 7.72852C87.206 7.72852 86.946 7.72852 86.866 7.88852C86.381 11.1923 86.2737 14.5405 86.546 17.8685Z" fill="#D9D9D9" stroke="#1B383C" stroke-width="2" stroke-miterlimit="10"/>
<path d="M84.6363 4.63785V4.36785C84.6543 4.10425 84.7758 3.85847 84.9745 3.68421C85.1731 3.50996 85.4326 3.42139 85.6963 3.43785L93.4563 4.00785C93.4563 4.00785 93.4563 4.00785 93.4563 3.94785C93.4837 3.49055 93.6628 3.05544 93.9653 2.71133C94.2677 2.36723 94.6763 2.13376 95.1263 2.04785C96.0124 1.90626 96.9182 1.95053 97.7863 2.17785C104.786 3.50785 112.066 2.80785 119.226 2.77785C120.456 2.69726 121.689 2.87437 122.846 3.29785C123.441 3.61455 123.961 4.05373 124.373 4.58638C124.785 5.11904 125.079 5.73305 125.236 6.38785L131.106 6.82785C131.368 6.85323 131.61 6.98084 131.778 7.18301C131.947 7.38519 132.029 7.64563 132.006 7.90785L131.756 10.6579C131.747 10.7893 131.713 10.9177 131.654 11.0356C131.595 11.1536 131.514 11.2588 131.415 11.3452C131.315 11.4316 131.2 11.4976 131.075 11.5392C130.95 11.5808 130.818 11.5974 130.686 11.5879L85.3063 8.19785C85.0461 8.17004 84.8073 8.04138 84.6409 7.83948C84.4745 7.63758 84.3939 7.37852 84.4163 7.11785C84.5738 6.30082 84.6475 5.46985 84.6363 4.63785Z" fill="#FF9820" stroke="#1B383C" stroke-width="2" stroke-miterlimit="10"/>
<path d="M101.936 103.518L107.506 129.008C108.023 131.062 108.338 133.162 108.446 135.278C108.362 138.185 107.884 141.068 107.026 143.848L103.786 156.318C103.216 158.508 102.646 160.818 103.196 163.018C103.746 165.218 105.856 167.208 108.086 166.808" stroke="#1B383C" stroke-width="2" stroke-miterlimit="10" stroke-linecap="round"/>
<path d="M86.2864 105.628L90.2864 128.198C90.6457 129.552 90.6663 130.974 90.3464 132.338C89.5464 134.748 86.8764 135.918 84.4864 136.788L62.7064 144.788C62.303 148.037 63.061 151.324 64.8464 154.068" stroke="#1B383C" stroke-width="2" stroke-miterlimit="10" stroke-linecap="round"/>
<path d="M100.716 99.148C102.382 99.3326 104.067 99.0639 105.593 98.3705C107.119 97.677 108.43 96.5844 109.386 95.208" stroke="#1B383C" stroke-width="2" stroke-miterlimit="10"/>
</svg>
