<svg width="92" height="52" viewBox="0 0 92 52" fill="none" xmlns="http://www.w3.org/2000/svg">
<g clip-path="url(#clip0_94_1597)">
<path d="M56.7439 37.4499C55.7819 41.5899 53.4991 45.6155 49.8157 47.715C47.2685 48.9734 44.4967 49.7116 41.661 49.8869C35.4485 50.6218 29.1895 50.8938 22.9354 50.7004C17.9037 50.5284 12.9237 51.0159 8.66235 47.7286C5.97056 45.6469 4.1191 42.66 3.4498 39.3195C3.10909 37.2506 3.05893 35.1444 3.30079 33.0624C3.51227 30.562 3.96348 28.0701 4.4102 25.6002C12.9493 24.9106 22.0511 26.2562 30.6887 26.1306C39.3264 26.005 47.9428 25.6055 56.5962 24.9578C56.8276 24.8962 57.1554 24.9643 57.2365 25.1912C57.3176 25.4182 57.7129 33.2978 56.7439 37.4499Z" fill="#DADADA" stroke="#1C383C" stroke-width="1.5" stroke-miterlimit="10"/>
<path d="M65.3018 21.6764C65.5058 22.1301 65.5245 22.6456 65.3539 23.1124C65.1492 23.4315 64.8682 23.6941 64.5364 23.8765C64.2046 24.0589 63.8326 24.1553 63.454 24.157C62.0363 24.3378 60.4258 24.4146 60.4258 24.4146C60.4321 24.7417 60.3094 25.0579 60.0844 25.2943C59.8593 25.5308 59.55 25.6684 59.2239 25.6771L2.01861 26.6206C1.69112 26.6245 1.37503 26.4991 1.13862 26.2714C0.902207 26.0437 0.764456 25.732 0.755118 25.4036L0.698154 22.0115C0.693257 21.8484 0.721017 21.686 0.779794 21.534C0.83857 21.3819 0.927169 21.2433 1.04035 21.1262C1.15354 21.0092 1.28901 20.9161 1.43876 20.8525C1.58851 20.789 1.7495 20.7562 1.91221 20.7561L9.28187 20.6368C9.54856 19.8385 9.97772 19.1048 10.5422 18.4821C11.1066 17.8593 11.7941 17.3611 12.561 17.019C14.0465 16.5904 15.603 16.4646 17.1387 16.649C26.1115 17.2005 35.1266 18.5693 44.0556 17.4444C45.1585 17.2244 46.2949 17.2318 47.3956 17.4662C47.9488 17.5909 48.4434 17.9007 48.7981 18.3446C49.1527 18.7886 49.3463 19.3402 49.3468 19.9085L49.3648 19.9762L59.0982 19.8177C59.2609 19.8131 59.4228 19.8412 59.5746 19.9003C59.7263 19.9595 59.8647 20.0486 59.9816 20.1623C60.0985 20.276 60.1915 20.412 60.2551 20.5623C60.3188 20.7126 60.3517 20.8741 60.3521 21.0372L60.367 21.3647C61.3309 21.108 64.2414 20.6021 64.6394 20.8171C64.9487 21.0224 65.1816 21.3246 65.3018 21.6764Z" fill="#F49825" stroke="#1C383C" stroke-width="1.5" stroke-miterlimit="10"/>
<path d="M34.174 29.7595C33.7216 30.0293 33.3339 30.3954 33.0382 30.832C32.7425 31.2687 32.5459 31.7652 32.4625 32.2866C32.3148 33.3503 32.3991 34.4338 32.7096 35.4624C33.0403 36.7925 33.6331 38.0432 34.4531 39.1407C35.2441 40.1728 36.5434 41.0591 37.7663 40.6506C38.1127 40.519 38.4257 40.3122 38.6829 40.045C38.9401 39.7778 39.1351 39.4567 39.254 39.1048C39.4887 38.3837 39.5704 37.6212 39.4939 36.8661C39.3648 34.5598 37.7297 27.839 34.174 29.7595Z" fill="white" stroke="#1C383C" stroke-width="1.5" stroke-miterlimit="10"/>
<path d="M24.033 30.0159C23.4261 30.2688 22.9024 30.6878 22.5217 31.2249C22.141 31.7621 21.9185 32.3959 21.8796 33.0542C21.826 34.382 22.1342 35.6998 22.771 36.8663C23.2457 37.9687 23.9689 38.946 24.8837 39.7213C25.345 40.1046 25.89 40.3734 26.4741 40.5058C27.0583 40.6382 27.6652 40.6304 28.2453 40.483C28.689 40.3605 29.0854 40.107 29.3831 39.7553C29.7928 39.1386 29.9853 38.4022 29.9303 37.6626C29.8936 34.9279 28.0293 28.703 24.033 30.0159Z" fill="white" stroke="#1C383C" stroke-width="1.5" stroke-miterlimit="10"/>
<path d="M24.6111 34.3105C24.9369 35.1852 25.3697 36.0162 25.8997 36.7843C26.3411 37.6165 27.0116 38.3043 27.8313 38.7657C28.0297 38.8798 28.264 38.9137 28.4862 38.8606C28.62 38.795 28.734 38.6953 28.817 38.5714C28.9 38.4474 28.9489 38.3038 28.9589 38.1547C29.2331 36.7574 29.1364 35.3118 28.6785 33.9625C28.4447 33.1876 27.9953 32.4953 27.3831 31.9669C26.8733 31.5642 25.4546 30.9271 24.7402 31.5005C24.0258 32.074 24.4174 33.6992 24.6111 34.3105Z" fill="#1C383C" stroke="#1C383C" stroke-width="1.5" stroke-miterlimit="10"/>
<path d="M35.4636 31.4932C35.194 31.9924 35.114 32.5729 35.2382 33.1274C35.5076 35.1198 36.3643 36.987 37.6985 38.4893C37.8882 38.6977 38.2354 38.916 38.45 38.7138C38.5148 38.6465 38.5603 38.5628 38.5816 38.4716C38.9267 36.7288 38.8024 34.9245 38.2216 33.2442C37.9461 32.3648 36.6729 29.6384 35.4636 31.4932Z" fill="#1C383C" stroke="#1C383C" stroke-width="1.5" stroke-miterlimit="10"/>
<path d="M30.7733 43.7352C30.9136 44.3016 31.1578 44.8372 31.4933 45.3144C31.6651 45.5555 31.888 45.7555 32.146 45.8999C32.4041 46.0443 32.6907 46.1295 32.9854 46.1494C33.2723 46.1503 33.5553 46.0833 33.8114 45.9539C34.0675 45.8245 34.2895 45.6364 34.4594 45.4047C34.7814 44.9167 34.9384 44.3376 34.9071 43.7527" stroke="#1C383C" stroke-width="1.5" stroke-miterlimit="10"/>
<path d="M7.11784 33.0921C6.88458 35.7434 6.65074 38.5087 7.65584 40.9648C7.93876 41.6307 8.2879 42.2664 8.69795 42.8621C9.59949 44.2464 10.8456 45.3711 12.3128 46.1249" stroke="#1C383C" stroke-width="1.5" stroke-miterlimit="10"/>
<path d="M44.1659 20.9986C39.3123 21.5126 34.4221 21.5951 29.5526 21.2451" stroke="#1C383C" stroke-width="1.5" stroke-miterlimit="10"/>
<path d="M20.8641 21.2188C21.0476 21.1813 21.2366 21.1802 21.4206 21.2154L24.519 21.57" stroke="#1C383C" stroke-width="1.5" stroke-miterlimit="10"/>
<path d="M64.5064 22.5172C65.1611 22.3988 65.7634 22.0805 66.2312 21.6059C66.6989 21.1313 67.0092 20.5234 67.1198 19.8652C67.3164 18.5431 67.158 17.1924 66.661 15.9522C66.2511 14.7163 65.7441 13.5149 65.1448 12.3594C64.636 11.3587 64.0375 10.2778 64.3268 9.19699C64.6161 8.11616 65.833 7.37559 66.9602 6.8752C71.2234 4.89911 75.5925 3.16178 80.0475 1.6712C81.6934 1.14079 82.9403 1.91138 84.0375 3.13232C85.9945 5.33149 87.5328 7.87211 88.5762 10.6281C89.4621 12.6716 89.7023 14.9384 89.2645 17.1231C89.182 17.64 88.9717 18.1279 88.6528 18.5422C88.3339 18.9565 87.9166 19.2841 87.439 19.4949C86.3119 20.0954 85.1348 20.6158 83.9677 21.1262L77.055 24.1285C75.8879 24.6389 74.0625 25.9399 72.7956 25.1292C72.4295 24.7967 72.1016 24.4241 71.8181 24.0184C70.9975 23.1569 69.8975 22.6175 68.7158 22.4972C67.3146 22.3866 65.9065 22.3933 64.5064 22.5172Z" fill="white" stroke="#1C383C" stroke-width="1.5" stroke-miterlimit="10"/>
<path d="M74.1023 15.6721C73.4975 15.4078 72.9697 14.9937 72.5683 14.4685C72.167 13.9433 71.9054 13.3243 71.808 12.6698C71.7216 12.0136 71.8867 11.3489 72.27 10.8102C72.6533 10.2715 73.2262 9.8988 73.8728 9.76756C74.8165 9.76544 75.7258 10.1232 76.4165 10.7683C76.2544 10.121 76.3221 9.43733 76.6079 8.83466C76.8937 8.23199 77.3797 7.74799 77.9826 7.46579C78.4231 7.30897 78.8941 7.25788 79.3579 7.3166C79.8217 7.37532 80.2653 7.54222 80.6532 7.80393C81.0411 8.06565 81.3625 8.41488 81.5916 8.82366C81.8207 9.23243 81.9512 9.68937 81.9726 10.1579C81.9417 11.3146 81.7913 12.4649 81.5237 13.5905C81.2859 15.0393 80.9049 16.4607 80.3866 17.8338C80.217 18.2741 75.6584 16.4627 75.2195 16.2626C74.7806 16.0624 74.4614 15.8723 74.1023 15.6721Z" fill="#E30613"/>
</g>
<defs>
<clipPath id="clip0_94_1597">
<rect width="92" height="52" fill="white"/>
</clipPath>
</defs>
</svg>
