<?xml version="1.0" encoding="UTF-8"?>
<svg fill="none" viewBox="0 0 236 236" xmlns="http://www.w3.org/2000/svg">
<mask id="b" fill="white">
<path d="m236 118c0 65.17-52.83 118-118 118-65.17 0-118-52.83-118-118 0-65.17 52.83-118 118-118 65.17 0 118 52.83 118 118z"/>
</mask>
<path d="m215 118c0 53.572-43.428 97-97 97v42c76.768 0 139-62.232 139-139h-42zm-97 97c-53.572 0-97-43.428-97-97h-42c0 76.768 62.232 139 139 139v-42zm-97-97c0-53.572 43.428-97 97-97v-42c-76.768 0-139 62.232-139 139h42zm97-97c53.572 0 97 43.428 97 97h42c0-76.768-62.232-139-139-139v42z" fill="#1C383C" mask="url(#b)"/>
<mask id="c" x="0" y="0" width="236" height="236" style="mask-type:alpha" maskUnits="userSpaceOnUse">
<mask id="a" fill="white">
<path d="m236 118c0 65.17-52.83 118-118 118-65.17 0-118-52.83-118-118 0-65.17 52.83-118 118-118 65.17 0 118 52.83 118 118z"/>
</mask>
<path d="m215 118c0 53.572-43.428 97-97 97v42c76.768 0 139-62.232 139-139h-42zm-97 97c-53.572 0-97-43.428-97-97h-42c0 76.768 62.232 139 139 139v-42zm-97-97c0-53.572 43.428-97 97-97v-42c-76.768 0-139 62.232-139 139h42zm97-97c53.572 0 97 43.428 97 97h42c0-76.768-62.232-139-139-139v42z" fill="#1C383C" mask="url(#a)"/>
</mask>
<g mask="url(#c)">
<path d="m188.1 234.25l-22.782-43.228 15.188-18.109 36.802 21.03-29.208 40.307z" fill="#FF9820"/>
</g>
</svg>
