<svg width="710" height="182" viewBox="0 0 710 182" fill="none" xmlns="http://www.w3.org/2000/svg">
<path d="M242.876 74.5522C244.589 60.1523 243.197 44.7705 250.047 32.1161C260.535 12.698 285.364 7.89802 306.983 5.9344C379.651 -0.392835 452.748 2.22533 525.63 4.73441C567.476 6.26167 608.144 5.38895 649.134 15.3162C666.9 19.5707 685.629 26.1161 696.224 41.1705C702.752 50.4432 705.428 61.8977 707.033 73.2431C711.528 105.316 700.505 120.261 670.646 128.552C648.599 134.661 626.017 138.261 603.328 140.988C542.754 148.297 481.751 149.17 420.855 146.879C390.781 145.788 360.815 143.824 330.742 141.534C316.829 140.443 302.916 138.697 289.003 137.934C277.551 137.279 265.886 138.479 255.933 131.279C249.833 126.806 247.264 120.37 242.876 114.479C241.164 112.297 238.702 110.225 236.455 108.697C235.5 108.049 228.321 104.007 228 104.443C235.599 95.0611 241.378 86.9885 242.876 74.5522Z" fill="white" stroke="#1B383C" stroke-width="3" stroke-miterlimit="10" stroke-linejoin="round"/>
<path d="M173.959 131.331C171.847 144.007 165.815 156.683 155.258 163.624C148.02 168.453 139.575 170.264 131.129 172.075C112.429 175.697 93.7291 177.81 74.7273 178.715C59.6466 179.319 44.5658 182.035 30.9931 172.981C22.5479 167.548 16.214 158.795 13.4995 148.836C11.6898 142.799 11.3882 136.461 11.6898 130.123C11.6898 122.578 12.5946 115.033 13.1979 107.487C38.8351 103.564 66.5837 105.375 92.5226 103.262C118.763 100.847 144.702 97.8293 170.641 93.9058C171.244 93.9058 172.451 93.9058 172.752 94.5094C173.355 95.113 176.07 118.654 173.959 131.331Z" fill="#D9D9D9" stroke="#1B383C" stroke-width="4" stroke-miterlimit="10"/>
<path d="M196.278 81.8338C196.882 83.041 197.183 84.8519 196.882 86.0592C195.977 88.1719 193.564 89.0773 191.453 89.6809C187.23 90.5863 182.404 91.19 182.404 91.19C182.706 93.3027 181.198 95.1135 179.086 95.1135L6.86427 110.506C4.75297 110.808 2.94328 109.299 2.94328 107.186L2.03843 96.9244C1.73682 94.8117 3.24489 93.0009 5.3562 93.0009L27.3741 91.19C27.9773 86.6628 33.1048 81.2302 36.4225 79.7211C40.6451 77.9102 45.471 77.6084 49.9952 77.6084C77.1405 77.3066 104.588 79.4193 131.431 73.9867C134.749 73.383 138.067 72.4776 141.385 73.3831C144.702 73.9867 147.718 77.0048 147.718 80.3247C147.718 80.3247 147.718 80.3247 147.718 80.6265L176.975 77.9102C179.086 77.6084 180.896 79.1175 180.896 81.2302V82.1356C183.912 81.2302 192.357 78.8157 193.564 79.4193C195.072 80.0229 195.977 80.9284 196.278 81.8338Z" fill="#FF9820" stroke="#1B383C" stroke-width="4" stroke-miterlimit="10"/>
<path d="M104.286 113.222C101.571 115.033 100.063 118.051 99.7614 121.371C99.4598 124.691 100.063 127.709 101.27 130.727C102.476 134.651 104.587 138.273 107.302 141.593C110.016 144.611 113.937 147.025 117.557 145.516C119.668 144.611 121.176 142.498 121.779 140.385C122.383 138.273 122.383 135.858 122.081 133.444C121.176 126.502 114.541 106.582 104.286 113.222Z" fill="white" stroke="#1B383C" stroke-width="4" stroke-miterlimit="10"/>
<path d="M73.8231 116.241C70.2037 117.75 68.0924 121.976 67.7908 125.899C67.4892 129.823 69.2989 133.746 71.4102 137.066C73.2199 140.084 75.3312 143.102 78.3473 145.215C81.3635 147.328 85.2845 147.931 88.6023 146.724C89.8087 146.121 91.0152 145.517 91.92 144.31C93.1265 142.499 93.4281 140.084 93.1265 137.972C92.5233 129.521 85.5861 111.412 73.8231 116.241Z" fill="white" stroke="#1B383C" stroke-width="4" stroke-miterlimit="10"/>
<path d="M76.2357 125.898C77.1406 128.614 78.9503 130.727 80.76 133.142C82.268 135.254 84.0777 137.669 87.0939 138.574C87.6971 138.876 88.3003 138.876 89.2052 138.574C90.11 138.272 90.4116 137.065 90.4116 136.461C91.0149 132.236 90.4116 127.709 88.6019 124.087C87.6971 121.974 86.4906 119.862 84.3793 118.353C82.8713 117.145 78.347 115.636 76.2357 117.447C74.1244 119.258 75.6325 124.087 76.2357 125.898Z" fill="#1B383C" stroke="#1B383C" stroke-miterlimit="10"/>
<path d="M108.509 115.034C107.604 116.543 107.905 118.354 108.207 119.863C109.413 125.597 112.429 131.332 116.652 135.557C117.255 136.161 118.462 136.764 119.065 136.161C119.367 135.859 119.367 135.557 119.367 135.255C120.573 130.124 118.763 124.692 117.255 119.561C116.049 117.147 111.525 109.299 108.509 115.034Z" fill="#1B383C" stroke="#1B383C" stroke-miterlimit="10"/>
<path d="M97.0469 156.079C97.6501 157.89 98.2533 159.399 99.4598 160.908C100.666 162.115 102.476 163.323 104.286 163.021C106.095 163.021 107.603 161.814 108.508 160.305C109.413 158.796 109.715 156.985 109.413 155.174" stroke="#1B383C" stroke-width="4" stroke-miterlimit="10"/>
<path d="M23.453 129.219C23.1514 137.368 23.1514 145.517 26.7708 152.76C27.6756 154.571 28.8821 156.382 30.3901 158.193C33.4063 162.116 37.3273 165.436 41.8515 167.247" stroke="#1B383C" stroke-width="4" stroke-miterlimit="10"/>
<path d="M132.638 84.5508C118.16 87.2671 103.381 88.4744 88.6021 88.4744" stroke="#1B383C" stroke-width="4" stroke-miterlimit="10"/>
<path d="M62.3613 90.2842C62.9646 89.9824 63.5678 89.9824 63.8694 89.9824C66.8856 89.9824 70.2033 90.2842 73.2195 90.2842" stroke="#1B383C" stroke-width="4" stroke-miterlimit="10"/>
<path d="M310.897 58L307.177 43.46H309.767L311.207 50.37L312.327 56.01H312.427L313.487 50.37L314.917 43.46H317.677L319.117 50.37L320.177 56.01H320.277L321.477 50.37L322.997 43.46H325.597L321.697 58H318.617L316.937 50.46L316.327 46.82H316.277L315.657 50.46L313.987 58H310.897ZM331.125 58.15C330.072 58.15 329.158 57.9367 328.385 57.51C327.618 57.0767 327.028 56.44 326.615 55.6C326.202 54.76 325.995 53.73 325.995 52.51C325.995 51.3233 326.212 50.31 326.645 49.47C327.085 48.6233 327.688 47.98 328.455 47.54C329.222 47.0933 330.102 46.87 331.095 46.87C332.075 46.87 332.912 47.0633 333.605 47.45C334.305 47.8367 334.838 48.41 335.205 49.17C335.572 49.9233 335.755 50.85 335.755 51.95C335.755 52.1633 335.748 52.34 335.735 52.48C335.728 52.62 335.718 52.7867 335.705 52.98H328.345C328.405 54.0933 328.678 54.9133 329.165 55.44C329.652 55.96 330.248 56.22 330.955 56.22C331.615 56.22 332.118 56.08 332.465 55.8C332.818 55.5133 333.045 55.1933 333.145 54.84H335.425C335.365 55.54 335.145 56.14 334.765 56.64C334.385 57.1333 333.882 57.51 333.255 57.77C332.635 58.0233 331.925 58.15 331.125 58.15ZM329.425 51.37H333.405C333.385 50.57 333.192 49.9533 332.825 49.52C332.458 49.08 331.855 48.86 331.015 48.86C330.142 48.86 329.492 49.1533 329.065 49.74C328.638 50.32 328.398 51.1233 328.345 52.15C328.398 51.85 328.512 51.6467 328.685 51.54C328.858 51.4267 329.105 51.37 329.425 51.37ZM345.864 58.19C344.784 58.19 343.857 57.9533 343.084 57.48C342.311 57 341.717 56.3333 341.304 55.48C340.897 54.6267 340.694 53.6367 340.694 52.51C340.694 51.3233 340.904 50.31 341.324 49.47C341.744 48.63 342.327 47.99 343.074 47.55C343.821 47.1033 344.681 46.88 345.654 46.88C346.621 46.88 347.431 47.06 348.084 47.42C348.744 47.7733 349.237 48.25 349.564 48.85C349.891 49.4433 350.041 50.1067 350.014 50.84H347.744C347.737 50.5467 347.691 50.28 347.604 50.04C347.517 49.7933 347.387 49.5867 347.214 49.42C347.047 49.2467 346.834 49.1133 346.574 49.02C346.314 48.9267 346.011 48.88 345.664 48.88C344.731 48.8733 344.067 49.1933 343.674 49.84C343.287 50.4867 343.094 51.36 343.094 52.46C343.094 53.7133 343.327 54.65 343.794 55.27C344.267 55.8833 345.004 56.1933 346.004 56.2C346.237 56.2 346.491 56.1333 346.764 56C347.044 55.86 347.281 55.6633 347.474 55.41C347.674 55.15 347.771 54.84 347.764 54.48H350.014C350.041 55.2467 349.857 55.9067 349.464 56.46C349.077 57.0133 348.564 57.44 347.924 57.74C347.284 58.04 346.597 58.19 345.864 58.19ZM354.886 58.12C354.219 58.12 353.629 57.9967 353.116 57.75C352.602 57.4967 352.199 57.1467 351.906 56.7C351.619 56.2533 351.476 55.7367 351.476 55.15C351.476 54.5033 351.592 53.97 351.826 53.55C352.059 53.13 352.396 52.7967 352.836 52.55C353.282 52.2967 353.806 52.1033 354.406 51.97C354.832 51.8767 355.282 51.8 355.756 51.74C356.236 51.68 356.679 51.6333 357.086 51.6C357.492 51.56 357.806 51.5333 358.026 51.52V51.08C358.026 50.34 357.876 49.7867 357.576 49.42C357.282 49.0467 356.782 48.86 356.076 48.86C355.622 48.86 355.242 48.9167 354.936 49.03C354.629 49.1367 354.396 49.3433 354.236 49.65C354.082 49.95 353.999 50.39 353.986 50.97H351.836C351.762 50.03 351.896 49.26 352.236 48.66C352.582 48.0533 353.096 47.6067 353.776 47.32C354.462 47.0267 355.272 46.88 356.206 46.88C356.759 46.88 357.279 46.9433 357.766 47.07C358.259 47.19 358.696 47.4 359.076 47.7C359.456 47.9933 359.756 48.3967 359.976 48.91C360.196 49.4233 360.306 50.0733 360.306 50.86V58H357.996L358.026 55.55C357.899 56.29 357.579 56.9033 357.066 57.39C356.552 57.8767 355.826 58.12 354.886 58.12ZM355.516 56.34C355.862 56.34 356.212 56.28 356.566 56.16C356.926 56.04 357.239 55.8667 357.506 55.64C357.779 55.4133 357.952 55.1467 358.026 54.84V52.84C357.759 52.8667 357.442 52.9133 357.076 52.98C356.716 53.0467 356.406 53.1067 356.146 53.16C355.399 53.3133 354.859 53.5167 354.526 53.77C354.199 54.0167 354.036 54.3967 354.036 54.91C354.036 55.2033 354.102 55.46 354.236 55.68C354.376 55.8933 354.559 56.0567 354.786 56.17C355.012 56.2833 355.256 56.34 355.516 56.34ZM363.212 58V42.44H365.572V58H363.212ZM372.993 58.19C371.913 58.19 370.986 57.9533 370.213 57.48C369.44 57 368.846 56.3333 368.433 55.48C368.026 54.6267 367.823 53.6367 367.823 52.51C367.823 51.3233 368.033 50.31 368.453 49.47C368.873 48.63 369.456 47.99 370.203 47.55C370.95 47.1033 371.81 46.88 372.783 46.88C373.75 46.88 374.56 47.06 375.213 47.42C375.873 47.7733 376.366 48.25 376.693 48.85C377.02 49.4433 377.17 50.1067 377.143 50.84H374.873C374.866 50.5467 374.82 50.28 374.733 50.04C374.646 49.7933 374.516 49.5867 374.343 49.42C374.176 49.2467 373.963 49.1133 373.703 49.02C373.443 48.9267 373.14 48.88 372.793 48.88C371.86 48.8733 371.196 49.1933 370.803 49.84C370.416 50.4867 370.223 51.36 370.223 52.46C370.223 53.7133 370.456 54.65 370.923 55.27C371.396 55.8833 372.133 56.1933 373.133 56.2C373.366 56.2 373.62 56.1333 373.893 56C374.173 55.86 374.41 55.6633 374.603 55.41C374.803 55.15 374.9 54.84 374.893 54.48H377.143C377.17 55.2467 376.986 55.9067 376.593 56.46C376.206 57.0133 375.693 57.44 375.053 57.74C374.413 58.04 373.726 58.19 372.993 58.19ZM382.326 58.22C381.379 58.22 380.619 57.89 380.046 57.23C379.472 56.57 379.186 55.6233 379.186 54.39V47.08H381.546V53.76C381.546 54.2933 381.606 54.7333 381.726 55.08C381.846 55.4267 382.036 55.68 382.296 55.84C382.556 56 382.892 56.08 383.306 56.08C383.806 56.08 384.256 55.9367 384.656 55.65C385.062 55.3567 385.349 55.0267 385.516 54.66V47.08H387.876V58H385.866L385.596 53.88L385.776 54.71C385.696 55.31 385.536 55.8767 385.296 56.41C385.062 56.9433 384.706 57.38 384.226 57.72C383.752 58.0533 383.119 58.22 382.326 58.22ZM390.849 58V42.44H393.209V58H390.849ZM398.948 58.12C398.282 58.12 397.692 57.9967 397.178 57.75C396.665 57.4967 396.262 57.1467 395.968 56.7C395.682 56.2533 395.538 55.7367 395.538 55.15C395.538 54.5033 395.655 53.97 395.888 53.55C396.122 53.13 396.458 52.7967 396.898 52.55C397.345 52.2967 397.868 52.1033 398.468 51.97C398.895 51.8767 399.345 51.8 399.818 51.74C400.298 51.68 400.742 51.6333 401.148 51.6C401.555 51.56 401.868 51.5333 402.088 51.52V51.08C402.088 50.34 401.938 49.7867 401.638 49.42C401.345 49.0467 400.845 48.86 400.138 48.86C399.685 48.86 399.305 48.9167 398.998 49.03C398.692 49.1367 398.458 49.3433 398.298 49.65C398.145 49.95 398.062 50.39 398.048 50.97H395.898C395.825 50.03 395.958 49.26 396.298 48.66C396.645 48.0533 397.158 47.6067 397.838 47.32C398.525 47.0267 399.335 46.88 400.268 46.88C400.822 46.88 401.342 46.9433 401.828 47.07C402.322 47.19 402.758 47.4 403.138 47.7C403.518 47.9933 403.818 48.3967 404.038 48.91C404.258 49.4233 404.368 50.0733 404.368 50.86V58H402.058L402.088 55.55C401.962 56.29 401.642 56.9033 401.128 57.39C400.615 57.8767 399.888 58.12 398.948 58.12ZM399.578 56.34C399.925 56.34 400.275 56.28 400.628 56.16C400.988 56.04 401.302 55.8667 401.568 55.64C401.842 55.4133 402.015 55.1467 402.088 54.84V52.84C401.822 52.8667 401.505 52.9133 401.138 52.98C400.778 53.0467 400.468 53.1067 400.208 53.16C399.462 53.3133 398.922 53.5167 398.588 53.77C398.262 54.0167 398.098 54.3967 398.098 54.91C398.098 55.2033 398.165 55.46 398.298 55.68C398.438 55.8933 398.622 56.0567 398.848 56.17C399.075 56.2833 399.318 56.34 399.578 56.34ZM410.125 58.16C409.258 58.16 408.582 57.94 408.095 57.5C407.615 57.0533 407.375 56.4167 407.375 55.59V50.07C407.375 49.85 407.422 49.6533 407.515 49.48C407.608 49.3 407.745 49.1867 407.925 49.14L407.375 47.52V47.23L407.905 43.96H409.705V55C409.705 55.3867 409.788 55.6567 409.955 55.81C410.128 55.9633 410.448 56.04 410.915 56.04C411.215 56.04 411.492 56.04 411.745 56.04C411.998 56.0333 412.228 56.0267 412.435 56.02V58.03C412.088 58.09 411.708 58.1267 411.295 58.14C410.882 58.1533 410.492 58.16 410.125 58.16ZM405.945 49.14V47.08H412.455V49.14H405.945ZM418.84 58.15C417.787 58.15 416.873 57.9367 416.1 57.51C415.333 57.0767 414.743 56.44 414.33 55.6C413.917 54.76 413.71 53.73 413.71 52.51C413.71 51.3233 413.927 50.31 414.36 49.47C414.8 48.6233 415.403 47.98 416.17 47.54C416.937 47.0933 417.817 46.87 418.81 46.87C419.79 46.87 420.627 47.0633 421.32 47.45C422.02 47.8367 422.553 48.41 422.92 49.17C423.287 49.9233 423.47 50.85 423.47 51.95C423.47 52.1633 423.463 52.34 423.45 52.48C423.443 52.62 423.433 52.7867 423.42 52.98H416.06C416.12 54.0933 416.393 54.9133 416.88 55.44C417.367 55.96 417.963 56.22 418.67 56.22C419.33 56.22 419.833 56.08 420.18 55.8C420.533 55.5133 420.76 55.1933 420.86 54.84H423.14C423.08 55.54 422.86 56.14 422.48 56.64C422.1 57.1333 421.597 57.51 420.97 57.77C420.35 58.0233 419.64 58.15 418.84 58.15ZM417.14 51.37H421.12C421.1 50.57 420.907 49.9533 420.54 49.52C420.173 49.08 419.57 48.86 418.73 48.86C417.857 48.86 417.207 49.1533 416.78 49.74C416.353 50.32 416.113 51.1233 416.06 52.15C416.113 51.85 416.227 51.6467 416.4 51.54C416.573 51.4267 416.82 51.37 417.14 51.37ZM433.399 58.15C432.392 58.15 431.516 57.9333 430.769 57.5C430.022 57.0667 429.442 56.43 429.029 55.59C428.616 54.7433 428.409 53.7067 428.409 52.48C428.409 51.32 428.626 50.32 429.059 49.48C429.499 48.64 430.099 47.9967 430.859 47.55C431.619 47.0967 432.479 46.87 433.439 46.87C434.479 46.87 435.369 47.0967 436.109 47.55C436.856 47.9967 437.429 48.64 437.829 49.48C438.229 50.32 438.429 51.32 438.429 52.48C438.429 53.7067 438.206 54.7433 437.759 55.59C437.319 56.43 436.719 57.0667 435.959 57.5C435.199 57.9333 434.346 58.15 433.399 58.15ZM433.439 56.14C434.206 56.14 434.832 55.8533 435.319 55.28C435.806 54.7067 436.049 53.7733 436.049 52.48C436.049 51.28 435.812 50.38 435.339 49.78C434.866 49.18 434.219 48.88 433.399 48.88C432.632 48.88 432.006 49.1767 431.519 49.77C431.039 50.3633 430.799 51.2667 430.799 52.48C430.799 53.7133 431.042 54.6333 431.529 55.24C432.022 55.84 432.659 56.14 433.439 56.14ZM443.771 58.22C442.824 58.22 442.064 57.89 441.491 57.23C440.918 56.57 440.631 55.6233 440.631 54.39V47.08H442.991V53.76C442.991 54.2933 443.051 54.7333 443.171 55.08C443.291 55.4267 443.481 55.68 443.741 55.84C444.001 56 444.338 56.08 444.751 56.08C445.251 56.08 445.701 55.9367 446.101 55.65C446.508 55.3567 446.794 55.0267 446.961 54.66V47.08H449.321V58H447.311L447.041 53.88L447.221 54.71C447.141 55.31 446.981 55.8767 446.741 56.41C446.508 56.9433 446.151 57.38 445.671 57.72C445.198 58.0533 444.564 58.22 443.771 58.22ZM452.293 58V47.08H454.313L454.573 51.29L454.363 50.71C454.41 50.27 454.497 49.8233 454.623 49.37C454.757 48.9167 454.943 48.5 455.183 48.12C455.43 47.74 455.743 47.4367 456.123 47.21C456.51 46.9767 456.98 46.86 457.533 46.86C457.667 46.86 457.8 46.8667 457.933 46.88C458.067 46.8933 458.19 46.9167 458.303 46.95V49.47C458.077 49.3967 457.833 49.35 457.573 49.33C457.32 49.3033 457.087 49.29 456.873 49.29C456.613 49.29 456.333 49.3433 456.033 49.45C455.733 49.55 455.457 49.7033 455.203 49.91C454.95 50.1167 454.767 50.3733 454.653 50.68V58H452.293ZM468.979 58.12C468.259 58.12 467.686 58 467.259 57.76C466.833 57.52 466.519 57.24 466.319 56.92C466.119 56.5933 465.993 56.3067 465.939 56.06L465.139 56.1L466.069 55.31C466.116 55.4767 466.219 55.64 466.379 55.8C466.539 55.9533 466.773 56.08 467.079 56.18C467.386 56.2733 467.763 56.32 468.209 56.32C468.956 56.32 469.569 56.03 470.049 55.45C470.536 54.87 470.779 53.9 470.779 52.54C470.779 51.3667 470.553 50.4667 470.099 49.84C469.646 49.2067 469.066 48.89 468.359 48.89C467.859 48.89 467.446 48.96 467.119 49.1C466.799 49.24 466.556 49.4033 466.389 49.59C466.223 49.7767 466.116 49.9433 466.069 50.09V49.34C466.083 49.12 466.139 48.8733 466.239 48.6C466.346 48.32 466.516 48.05 466.749 47.79C466.989 47.5233 467.303 47.3067 467.689 47.14C468.083 46.9667 468.569 46.88 469.149 46.88C470.029 46.88 470.769 47.1167 471.369 47.59C471.969 48.0633 472.423 48.7133 472.729 49.54C473.043 50.36 473.199 51.2933 473.199 52.34C473.199 53.3067 473.079 54.1533 472.839 54.88C472.606 55.6 472.286 56.2 471.879 56.68C471.479 57.16 471.029 57.52 470.529 57.76C470.029 58 469.513 58.12 468.979 58.12ZM463.719 62.03V47.08H466.039L466.069 48.59V55.4L465.939 56.06L466.069 58.01V62.03H463.719ZM475.477 58V47.08H477.497L477.757 51.29L477.547 50.71C477.594 50.27 477.68 49.8233 477.807 49.37C477.94 48.9167 478.127 48.5 478.367 48.12C478.614 47.74 478.927 47.4367 479.307 47.21C479.694 46.9767 480.164 46.86 480.717 46.86C480.85 46.86 480.984 46.8667 481.117 46.88C481.25 46.8933 481.374 46.9167 481.487 46.95V49.47C481.26 49.3967 481.017 49.35 480.757 49.33C480.504 49.3033 480.27 49.29 480.057 49.29C479.797 49.29 479.517 49.3433 479.217 49.45C478.917 49.55 478.64 49.7033 478.387 49.91C478.134 50.1167 477.95 50.3733 477.837 50.68V58H475.477ZM483.251 58V47.08H485.641L485.611 58H483.251ZM484.461 45.47C484.028 45.47 483.661 45.32 483.361 45.02C483.061 44.7133 482.911 44.3233 482.911 43.85C482.911 43.3833 483.061 43.0033 483.361 42.71C483.661 42.4167 484.028 42.27 484.461 42.27C484.881 42.27 485.241 42.4167 485.541 42.71C485.848 43.0033 486.001 43.3833 486.001 43.85C486.001 44.3233 485.848 44.7133 485.541 45.02C485.241 45.32 484.881 45.47 484.461 45.47ZM493.052 58.19C491.972 58.19 491.045 57.9533 490.272 57.48C489.498 57 488.905 56.3333 488.492 55.48C488.085 54.6267 487.882 53.6367 487.882 52.51C487.882 51.3233 488.092 50.31 488.512 49.47C488.932 48.63 489.515 47.99 490.262 47.55C491.008 47.1033 491.868 46.88 492.842 46.88C493.808 46.88 494.618 47.06 495.272 47.42C495.932 47.7733 496.425 48.25 496.752 48.85C497.078 49.4433 497.228 50.1067 497.202 50.84H494.932C494.925 50.5467 494.878 50.28 494.792 50.04C494.705 49.7933 494.575 49.5867 494.402 49.42C494.235 49.2467 494.022 49.1133 493.762 49.02C493.502 48.9267 493.198 48.88 492.852 48.88C491.918 48.8733 491.255 49.1933 490.862 49.84C490.475 50.4867 490.282 51.36 490.282 52.46C490.282 53.7133 490.515 54.65 490.982 55.27C491.455 55.8833 492.192 56.1933 493.192 56.2C493.425 56.2 493.678 56.1333 493.952 56C494.232 55.86 494.468 55.6633 494.662 55.41C494.862 55.15 494.958 54.84 494.952 54.48H497.202C497.228 55.2467 497.045 55.9067 496.652 56.46C496.265 57.0133 495.752 57.44 495.112 57.74C494.472 58.04 493.785 58.19 493.052 58.19ZM503.723 58.15C502.669 58.15 501.756 57.9367 500.983 57.51C500.216 57.0767 499.626 56.44 499.213 55.6C498.799 54.76 498.593 53.73 498.593 52.51C498.593 51.3233 498.809 50.31 499.243 49.47C499.683 48.6233 500.286 47.98 501.053 47.54C501.819 47.0933 502.699 46.87 503.693 46.87C504.673 46.87 505.509 47.0633 506.203 47.45C506.903 47.8367 507.436 48.41 507.803 49.17C508.169 49.9233 508.353 50.85 508.353 51.95C508.353 52.1633 508.346 52.34 508.333 52.48C508.326 52.62 508.316 52.7867 508.303 52.98H500.943C501.003 54.0933 501.276 54.9133 501.763 55.44C502.249 55.96 502.846 56.22 503.553 56.22C504.213 56.22 504.716 56.08 505.063 55.8C505.416 55.5133 505.643 55.1933 505.743 54.84H508.023C507.963 55.54 507.743 56.14 507.363 56.64C506.983 57.1333 506.479 57.51 505.853 57.77C505.233 58.0233 504.523 58.15 503.723 58.15ZM502.023 51.37H506.003C505.983 50.57 505.789 49.9533 505.423 49.52C505.056 49.08 504.453 48.86 503.613 48.86C502.739 48.86 502.089 49.1533 501.663 49.74C501.236 50.32 500.996 51.1233 500.943 52.15C500.996 51.85 501.109 51.6467 501.283 51.54C501.456 51.4267 501.703 51.37 502.023 51.37ZM514.42 58.17C513.6 58.17 512.867 58.05 512.22 57.81C511.58 57.57 511.07 57.2 510.69 56.7C510.317 56.1933 510.11 55.5467 510.07 54.76H512.35C512.437 55.32 512.66 55.7167 513.02 55.95C513.387 56.1833 513.837 56.3 514.37 56.3C514.757 56.3 515.1 56.2633 515.4 56.19C515.707 56.11 515.947 55.98 516.12 55.8C516.3 55.6133 516.39 55.3633 516.39 55.05C516.39 54.83 516.34 54.65 516.24 54.51C516.147 54.3633 516 54.2367 515.8 54.13C515.607 54.0233 515.36 53.9233 515.06 53.83C514.767 53.7367 514.427 53.6333 514.04 53.52C513.347 53.32 512.717 53.0833 512.15 52.81C511.584 52.5367 511.134 52.18 510.8 51.74C510.467 51.2933 510.3 50.7133 510.3 50C510.3 49.0267 510.66 48.2667 511.38 47.72C512.1 47.1667 513.027 46.89 514.16 46.89C514.894 46.89 515.554 46.9967 516.14 47.21C516.734 47.4167 517.22 47.7633 517.6 48.25C517.98 48.73 518.227 49.3833 518.34 50.21L516.06 50.2C515.96 49.8133 515.814 49.5167 515.62 49.31C515.427 49.0967 515.204 48.95 514.95 48.87C514.704 48.7833 514.434 48.74 514.14 48.74C513.82 48.74 513.544 48.79 513.31 48.89C513.077 48.99 512.897 49.13 512.77 49.31C512.644 49.49 512.58 49.7067 512.58 49.96C512.58 50.2533 512.664 50.5 512.83 50.7C513.004 50.8933 513.26 51.0633 513.6 51.21C513.947 51.35 514.377 51.4967 514.89 51.65C515.304 51.77 515.73 51.9033 516.17 52.05C516.61 52.19 517.02 52.37 517.4 52.59C517.78 52.81 518.087 53.1033 518.32 53.47C518.554 53.83 518.67 54.3 518.67 54.88C518.67 55.9133 518.28 56.72 517.5 57.3C516.727 57.88 515.7 58.17 514.42 58.17ZM527.288 58.12C526.621 58.12 526.031 57.9967 525.518 57.75C525.005 57.4967 524.601 57.1467 524.308 56.7C524.021 56.2533 523.878 55.7367 523.878 55.15C523.878 54.5033 523.995 53.97 524.228 53.55C524.461 53.13 524.798 52.7967 525.238 52.55C525.685 52.2967 526.208 52.1033 526.808 51.97C527.235 51.8767 527.685 51.8 528.158 51.74C528.638 51.68 529.081 51.6333 529.488 51.6C529.895 51.56 530.208 51.5333 530.428 51.52V51.08C530.428 50.34 530.278 49.7867 529.978 49.42C529.685 49.0467 529.185 48.86 528.478 48.86C528.025 48.86 527.645 48.9167 527.338 49.03C527.031 49.1367 526.798 49.3433 526.638 49.65C526.485 49.95 526.401 50.39 526.388 50.97H524.238C524.165 50.03 524.298 49.26 524.638 48.66C524.985 48.0533 525.498 47.6067 526.178 47.32C526.865 47.0267 527.675 46.88 528.608 46.88C529.161 46.88 529.681 46.9433 530.168 47.07C530.661 47.19 531.098 47.4 531.478 47.7C531.858 47.9933 532.158 48.3967 532.378 48.91C532.598 49.4233 532.708 50.0733 532.708 50.86V58H530.398L530.428 55.55C530.301 56.29 529.981 56.9033 529.468 57.39C528.955 57.8767 528.228 58.12 527.288 58.12ZM527.918 56.34C528.265 56.34 528.615 56.28 528.968 56.16C529.328 56.04 529.641 55.8667 529.908 55.64C530.181 55.4133 530.355 55.1467 530.428 54.84V52.84C530.161 52.8667 529.845 52.9133 529.478 52.98C529.118 53.0467 528.808 53.1067 528.548 53.16C527.801 53.3133 527.261 53.5167 526.928 53.77C526.601 54.0167 526.438 54.3967 526.438 54.91C526.438 55.2033 526.505 55.46 526.638 55.68C526.778 55.8933 526.961 56.0567 527.188 56.17C527.415 56.2833 527.658 56.34 527.918 56.34ZM540.044 58.19C538.964 58.19 538.037 57.9533 537.264 57.48C536.49 57 535.897 56.3333 535.484 55.48C535.077 54.6267 534.874 53.6367 534.874 52.51C534.874 51.3233 535.084 50.31 535.504 49.47C535.924 48.63 536.507 47.99 537.254 47.55C538 47.1033 538.86 46.88 539.834 46.88C540.8 46.88 541.61 47.06 542.264 47.42C542.924 47.7733 543.417 48.25 543.744 48.85C544.07 49.4433 544.22 50.1067 544.194 50.84H541.924C541.917 50.5467 541.87 50.28 541.784 50.04C541.697 49.7933 541.567 49.5867 541.394 49.42C541.227 49.2467 541.014 49.1133 540.754 49.02C540.494 48.9267 540.19 48.88 539.844 48.88C538.91 48.8733 538.247 49.1933 537.854 49.84C537.467 50.4867 537.274 51.36 537.274 52.46C537.274 53.7133 537.507 54.65 537.974 55.27C538.447 55.8833 539.184 56.1933 540.184 56.2C540.417 56.2 540.67 56.1333 540.944 56C541.224 55.86 541.46 55.6633 541.654 55.41C541.854 55.15 541.95 54.84 541.944 54.48H544.194C544.22 55.2467 544.037 55.9067 543.644 56.46C543.257 57.0133 542.744 57.44 542.104 57.74C541.464 58.04 540.777 58.19 540.044 58.19ZM550.786 58.19C549.706 58.19 548.779 57.9533 548.006 57.48C547.233 57 546.639 56.3333 546.226 55.48C545.819 54.6267 545.616 53.6367 545.616 52.51C545.616 51.3233 545.826 50.31 546.246 49.47C546.666 48.63 547.249 47.99 547.996 47.55C548.743 47.1033 549.603 46.88 550.576 46.88C551.543 46.88 552.353 47.06 553.006 47.42C553.666 47.7733 554.159 48.25 554.486 48.85C554.813 49.4433 554.963 50.1067 554.936 50.84H552.666C552.659 50.5467 552.613 50.28 552.526 50.04C552.439 49.7933 552.309 49.5867 552.136 49.42C551.969 49.2467 551.756 49.1133 551.496 49.02C551.236 48.9267 550.933 48.88 550.586 48.88C549.653 48.8733 548.989 49.1933 548.596 49.84C548.209 50.4867 548.016 51.36 548.016 52.46C548.016 53.7133 548.249 54.65 548.716 55.27C549.189 55.8833 549.926 56.1933 550.926 56.2C551.159 56.2 551.413 56.1333 551.686 56C551.966 55.86 552.203 55.6633 552.396 55.41C552.596 55.15 552.693 54.84 552.686 54.48H554.936C554.963 55.2467 554.779 55.9067 554.386 56.46C553.999 57.0133 553.486 57.44 552.846 57.74C552.206 58.04 551.519 58.19 550.786 58.19ZM557.059 58V47.08H559.079L559.339 51.29L559.129 50.71C559.176 50.27 559.262 49.8233 559.389 49.37C559.522 48.9167 559.709 48.5 559.949 48.12C560.196 47.74 560.509 47.4367 560.889 47.21C561.276 46.9767 561.746 46.86 562.299 46.86C562.432 46.86 562.566 46.8667 562.699 46.88C562.832 46.8933 562.956 46.9167 563.069 46.95V49.47C562.842 49.3967 562.599 49.35 562.339 49.33C562.086 49.3033 561.852 49.29 561.639 49.29C561.379 49.29 561.099 49.3433 560.799 49.45C560.499 49.55 560.222 49.7033 559.969 49.91C559.716 50.1167 559.532 50.3733 559.419 50.68V58H557.059ZM568.946 58.15C567.939 58.15 567.062 57.9333 566.316 57.5C565.569 57.0667 564.989 56.43 564.576 55.59C564.162 54.7433 563.956 53.7067 563.956 52.48C563.956 51.32 564.172 50.32 564.606 49.48C565.046 48.64 565.646 47.9967 566.406 47.55C567.166 47.0967 568.026 46.87 568.986 46.87C570.026 46.87 570.916 47.0967 571.656 47.55C572.402 47.9967 572.976 48.64 573.376 49.48C573.776 50.32 573.976 51.32 573.976 52.48C573.976 53.7067 573.752 54.7433 573.306 55.59C572.866 56.43 572.266 57.0667 571.506 57.5C570.746 57.9333 569.892 58.15 568.946 58.15ZM568.986 56.14C569.752 56.14 570.379 55.8533 570.866 55.28C571.352 54.7067 571.596 53.7733 571.596 52.48C571.596 51.28 571.359 50.38 570.886 49.78C570.412 49.18 569.766 48.88 568.946 48.88C568.179 48.88 567.552 49.1767 567.066 49.77C566.586 50.3633 566.346 51.2667 566.346 52.48C566.346 53.7133 566.589 54.6333 567.076 55.24C567.569 55.84 568.206 56.14 568.986 56.14ZM580.064 58.12C579.124 58.12 578.337 57.8767 577.704 57.39C577.07 56.9033 576.594 56.2367 576.274 55.39C575.954 54.5367 575.794 53.5667 575.794 52.48C575.794 51.2467 576 50.2167 576.414 49.39C576.834 48.5567 577.374 47.93 578.034 47.51C578.694 47.09 579.397 46.88 580.144 46.88C580.87 46.88 581.44 47 581.854 47.24C582.267 47.48 582.57 47.76 582.764 48.08C582.957 48.4 583.08 48.6867 583.134 48.94L583.824 49.03L583.004 49.88C582.95 49.7133 582.844 49.5533 582.684 49.4C582.53 49.24 582.307 49.11 582.014 49.01C581.727 48.91 581.354 48.86 580.894 48.86C580.114 48.86 579.47 49.1467 578.964 49.72C578.457 50.2933 578.204 51.23 578.204 52.53C578.204 53.6967 578.434 54.6 578.894 55.24C579.36 55.88 579.967 56.2 580.714 56.2C581.22 56.2 581.63 56.1167 581.944 55.95C582.264 55.7833 582.51 55.5933 582.684 55.38C582.857 55.16 582.964 54.98 583.004 54.84L583.104 55.18L583.004 55.54C582.97 55.7533 582.904 56.0067 582.804 56.3C582.704 56.5867 582.544 56.87 582.324 57.15C582.11 57.43 581.82 57.6633 581.454 57.85C581.087 58.03 580.624 58.12 580.064 58.12ZM583.014 58L583.004 42.44H585.354V58H583.014ZM588.329 58V47.08H590.719L590.689 58H588.329ZM589.539 45.47C589.106 45.47 588.739 45.32 588.439 45.02C588.139 44.7133 587.989 44.3233 587.989 43.85C587.989 43.3833 588.139 43.0033 588.439 42.71C588.739 42.4167 589.106 42.27 589.539 42.27C589.959 42.27 590.319 42.4167 590.619 42.71C590.926 43.0033 591.079 43.3833 591.079 43.85C591.079 44.3233 590.926 44.7133 590.619 45.02C590.319 45.32 589.959 45.47 589.539 45.47ZM593.68 58V47.08H595.7L595.96 51.2L595.79 50.37C595.87 49.77 596.027 49.2033 596.26 48.67C596.5 48.13 596.857 47.6933 597.33 47.36C597.803 47.0267 598.437 46.86 599.23 46.86C600.263 46.86 601.063 47.1833 601.63 47.83C602.197 48.47 602.48 49.45 602.48 50.77V58H600.12V51.59C600.12 50.9633 600.057 50.46 599.93 50.08C599.81 49.7 599.613 49.4267 599.34 49.26C599.067 49.0867 598.703 49 598.25 49C597.757 49 597.307 49.1467 596.9 49.44C596.5 49.7267 596.213 50.0533 596.04 50.42V58H593.68ZM609.72 62.46C608.833 62.46 608.033 62.3133 607.32 62.02C606.613 61.7333 606.067 61.2933 605.68 60.7C605.293 60.1067 605.143 59.3633 605.23 58.47H607.51C607.503 58.85 607.55 59.19 607.65 59.49C607.75 59.7967 607.96 60.04 608.28 60.22C608.6 60.4 609.087 60.49 609.74 60.49C610.307 60.49 610.74 60.41 611.04 60.25C611.347 60.09 611.553 59.8467 611.66 59.52C611.767 59.1933 611.82 58.77 611.82 58.25V55.29C611.76 55.6033 611.63 55.9333 611.43 56.28C611.23 56.6267 610.92 56.92 610.5 57.16C610.08 57.3933 609.513 57.51 608.8 57.51C608.153 57.51 607.577 57.3667 607.07 57.08C606.563 56.7933 606.133 56.4067 605.78 55.92C605.427 55.4333 605.157 54.8867 604.97 54.28C604.79 53.6667 604.7 53.0333 604.7 52.38C604.7 51.1667 604.9 50.1533 605.3 49.34C605.707 48.5267 606.23 47.9133 606.87 47.5C607.51 47.0867 608.187 46.88 608.9 46.88C609.533 46.88 610.043 46.9667 610.43 47.14C610.823 47.3133 611.13 47.5233 611.35 47.77C611.57 48.0167 611.73 48.26 611.83 48.5L611.84 47.09H614.15V58.23C614.15 59.2167 613.957 60.02 613.57 60.64C613.19 61.26 612.667 61.7133 612 62C611.333 62.2933 610.573 62.4467 609.72 62.46ZM609.61 55.62C610.11 55.62 610.513 55.5533 610.82 55.42C611.127 55.28 611.36 55.1167 611.52 54.93C611.68 54.7367 611.78 54.57 611.82 54.43V49.86C611.753 49.7 611.63 49.5433 611.45 49.39C611.27 49.2367 611.033 49.11 610.74 49.01C610.447 48.91 610.087 48.86 609.66 48.86C608.92 48.86 608.313 49.1333 607.84 49.68C607.367 50.2267 607.13 51.0833 607.13 52.25C607.13 53.31 607.363 54.1367 607.83 54.73C608.303 55.3233 608.897 55.62 609.61 55.62ZM275.203 82.16C274.337 82.16 273.66 81.94 273.173 81.5C272.693 81.0533 272.453 80.4167 272.453 79.59V74.07C272.453 73.85 272.5 73.6533 272.593 73.48C272.687 73.3 272.823 73.1867 273.003 73.14L272.453 71.52V71.23L272.983 67.96H274.783V79C274.783 79.3867 274.867 79.6567 275.033 79.81C275.207 79.9633 275.527 80.04 275.993 80.04C276.293 80.04 276.57 80.04 276.823 80.04C277.077 80.0333 277.307 80.0267 277.513 80.02V82.03C277.167 82.09 276.787 82.1267 276.373 82.14C275.96 82.1533 275.57 82.16 275.203 82.16ZM271.023 73.14V71.08H277.533V73.14H271.023ZM283.79 82.15C282.783 82.15 281.906 81.9333 281.16 81.5C280.413 81.0667 279.833 80.43 279.42 79.59C279.006 78.7433 278.8 77.7067 278.8 76.48C278.8 75.32 279.016 74.32 279.45 73.48C279.89 72.64 280.49 71.9967 281.25 71.55C282.01 71.0967 282.87 70.87 283.83 70.87C284.87 70.87 285.76 71.0967 286.5 71.55C287.246 71.9967 287.82 72.64 288.22 73.48C288.62 74.32 288.82 75.32 288.82 76.48C288.82 77.7067 288.596 78.7433 288.15 79.59C287.71 80.43 287.11 81.0667 286.35 81.5C285.59 81.9333 284.736 82.15 283.79 82.15ZM283.83 80.14C284.596 80.14 285.223 79.8533 285.71 79.28C286.196 78.7067 286.44 77.7733 286.44 76.48C286.44 75.28 286.203 74.38 285.73 73.78C285.256 73.18 284.61 72.88 283.79 72.88C283.023 72.88 282.396 73.1767 281.91 73.77C281.43 74.3633 281.19 75.2667 281.19 76.48C281.19 77.7133 281.433 78.6333 281.92 79.24C282.413 79.84 283.05 80.14 283.83 80.14ZM298.016 82.16C297.149 82.16 296.472 81.94 295.986 81.5C295.506 81.0533 295.266 80.4167 295.266 79.59V74.07C295.266 73.85 295.312 73.6533 295.406 73.48C295.499 73.3 295.636 73.1867 295.816 73.14L295.266 71.52V71.23L295.796 67.96H297.596V79C297.596 79.3867 297.679 79.6567 297.846 79.81C298.019 79.9633 298.339 80.04 298.806 80.04C299.106 80.04 299.382 80.04 299.636 80.04C299.889 80.0333 300.119 80.0267 300.326 80.02V82.03C299.979 82.09 299.599 82.1267 299.186 82.14C298.772 82.1533 298.382 82.16 298.016 82.16ZM293.836 73.14V71.08H300.346V73.14H293.836ZM302.547 82V66.44H304.887V71.09L304.727 74.2L304.817 75.08L304.697 74.37C304.777 73.77 304.931 73.2033 305.157 72.67C305.391 72.13 305.741 71.6933 306.207 71.36C306.681 71.0267 307.314 70.86 308.107 70.86C309.141 70.86 309.937 71.1833 310.497 71.83C311.064 72.47 311.347 73.45 311.347 74.77V82H308.977V75.59C308.977 74.6633 308.841 74 308.567 73.6C308.294 73.2 307.804 73 307.097 73C306.611 73 306.171 73.1633 305.777 73.49C305.391 73.81 305.097 74.1667 304.897 74.56V82H302.547ZM318.664 82.15C317.611 82.15 316.698 81.9367 315.924 81.51C315.158 81.0767 314.568 80.44 314.154 79.6C313.741 78.76 313.534 77.73 313.534 76.51C313.534 75.3233 313.751 74.31 314.184 73.47C314.624 72.6233 315.228 71.98 315.994 71.54C316.761 71.0933 317.641 70.87 318.634 70.87C319.614 70.87 320.451 71.0633 321.144 71.45C321.844 71.8367 322.378 72.41 322.744 73.17C323.111 73.9233 323.294 74.85 323.294 75.95C323.294 76.1633 323.288 76.34 323.274 76.48C323.268 76.62 323.258 76.7867 323.244 76.98H315.884C315.944 78.0933 316.218 78.9133 316.704 79.44C317.191 79.96 317.788 80.22 318.494 80.22C319.154 80.22 319.658 80.08 320.004 79.8C320.358 79.5133 320.584 79.1933 320.684 78.84H322.964C322.904 79.54 322.684 80.14 322.304 80.64C321.924 81.1333 321.421 81.51 320.794 81.77C320.174 82.0233 319.464 82.15 318.664 82.15ZM316.964 75.37H320.944C320.924 74.57 320.731 73.9533 320.364 73.52C319.998 73.08 319.394 72.86 318.554 72.86C317.681 72.86 317.031 73.1533 316.604 73.74C316.178 74.32 315.938 75.1233 315.884 76.15C315.938 75.85 316.051 75.6467 316.224 75.54C316.398 75.4267 316.644 75.37 316.964 75.37ZM331.663 82.12C330.996 82.12 330.406 81.9967 329.893 81.75C329.38 81.4967 328.976 81.1467 328.683 80.7C328.396 80.2533 328.253 79.7367 328.253 79.15C328.253 78.5033 328.37 77.97 328.603 77.55C328.836 77.13 329.173 76.7967 329.613 76.55C330.06 76.2967 330.583 76.1033 331.183 75.97C331.61 75.8767 332.06 75.8 332.533 75.74C333.013 75.68 333.456 75.6333 333.863 75.6C334.27 75.56 334.583 75.5333 334.803 75.52V75.08C334.803 74.34 334.653 73.7867 334.353 73.42C334.06 73.0467 333.56 72.86 332.853 72.86C332.4 72.86 332.02 72.9167 331.713 73.03C331.406 73.1367 331.173 73.3433 331.013 73.65C330.86 73.95 330.776 74.39 330.763 74.97H328.613C328.54 74.03 328.673 73.26 329.013 72.66C329.36 72.0533 329.873 71.6067 330.553 71.32C331.24 71.0267 332.05 70.88 332.983 70.88C333.536 70.88 334.056 70.9433 334.543 71.07C335.036 71.19 335.473 71.4 335.853 71.7C336.233 71.9933 336.533 72.3967 336.753 72.91C336.973 73.4233 337.083 74.0733 337.083 74.86V82H334.773L334.803 79.55C334.676 80.29 334.356 80.9033 333.843 81.39C333.33 81.8767 332.603 82.12 331.663 82.12ZM332.293 80.34C332.64 80.34 332.99 80.28 333.343 80.16C333.703 80.04 334.016 79.8667 334.283 79.64C334.556 79.4133 334.73 79.1467 334.803 78.84V76.84C334.536 76.8667 334.22 76.9133 333.853 76.98C333.493 77.0467 333.183 77.1067 332.923 77.16C332.176 77.3133 331.636 77.5167 331.303 77.77C330.976 78.0167 330.813 78.3967 330.813 78.91C330.813 79.2033 330.88 79.46 331.013 79.68C331.153 79.8933 331.336 80.0567 331.563 80.17C331.79 80.2833 332.033 80.34 332.293 80.34ZM339.989 82V71.08H342.019L342.279 75.2L342.109 74.37C342.189 73.77 342.345 73.2033 342.579 72.67C342.812 72.13 343.165 71.6933 343.639 71.36C344.112 71.0267 344.742 70.86 345.529 70.86C346.402 70.86 347.105 71.11 347.639 71.61C348.179 72.1033 348.512 72.8633 348.639 73.89L348.689 74.05V82H346.319V75.59C346.319 74.9633 346.259 74.46 346.139 74.08C346.019 73.7 345.829 73.4267 345.569 73.26C345.315 73.0867 344.979 73 344.559 73C344.065 73 343.619 73.1467 343.219 73.44C342.819 73.7267 342.532 74.0533 342.359 74.42V82H339.989ZM352.649 82V75.59C352.649 74.9633 352.589 74.46 352.469 74.08C352.349 73.7 352.159 73.4267 351.899 73.26C351.645 73.0867 351.309 73 350.889 73C350.395 73 349.949 73.1467 349.549 73.44C349.149 73.7267 348.862 74.0533 348.689 74.42L348.669 75.2L348.509 74.55C348.575 73.9567 348.719 73.38 348.939 72.82C349.165 72.2533 349.512 71.7867 349.979 71.42C350.445 71.0467 351.072 70.86 351.859 70.86C352.845 70.86 353.619 71.1833 354.179 71.83C354.739 72.47 355.019 73.45 355.019 74.77V82H352.649ZM362.208 82.15C361.201 82.15 360.324 81.9333 359.578 81.5C358.831 81.0667 358.251 80.43 357.838 79.59C357.424 78.7433 357.218 77.7067 357.218 76.48C357.218 75.32 357.434 74.32 357.868 73.48C358.308 72.64 358.908 71.9967 359.668 71.55C360.428 71.0967 361.288 70.87 362.248 70.87C363.288 70.87 364.178 71.0967 364.918 71.55C365.664 71.9967 366.238 72.64 366.638 73.48C367.038 74.32 367.238 75.32 367.238 76.48C367.238 77.7067 367.014 78.7433 366.568 79.59C366.128 80.43 365.528 81.0667 364.768 81.5C364.008 81.9333 363.154 82.15 362.208 82.15ZM362.248 80.14C363.014 80.14 363.641 79.8533 364.128 79.28C364.614 78.7067 364.858 77.7733 364.858 76.48C364.858 75.28 364.621 74.38 364.148 73.78C363.674 73.18 363.028 72.88 362.208 72.88C361.441 72.88 360.814 73.1767 360.328 73.77C359.848 74.3633 359.608 75.2667 359.608 76.48C359.608 77.7133 359.851 78.6333 360.338 79.24C360.831 79.84 361.468 80.14 362.248 80.14ZM372.58 82.22C371.633 82.22 370.873 81.89 370.3 81.23C369.726 80.57 369.44 79.6233 369.44 78.39V71.08H371.8V77.76C371.8 78.2933 371.86 78.7333 371.98 79.08C372.1 79.4267 372.29 79.68 372.55 79.84C372.81 80 373.146 80.08 373.56 80.08C374.06 80.08 374.51 79.9367 374.91 79.65C375.316 79.3567 375.603 79.0267 375.77 78.66V71.08H378.13V82H376.12L375.85 77.88L376.03 78.71C375.95 79.31 375.79 79.8767 375.55 80.41C375.316 80.9433 374.96 81.38 374.48 81.72C374.006 82.0533 373.373 82.22 372.58 82.22ZM381.102 82V71.08H383.122L383.382 75.2L383.212 74.37C383.292 73.77 383.449 73.2033 383.682 72.67C383.922 72.13 384.279 71.6933 384.752 71.36C385.225 71.0267 385.859 70.86 386.652 70.86C387.685 70.86 388.485 71.1833 389.052 71.83C389.619 72.47 389.902 73.45 389.902 74.77V82H387.542V75.59C387.542 74.9633 387.479 74.46 387.352 74.08C387.232 73.7 387.035 73.4267 386.762 73.26C386.489 73.0867 386.125 73 385.672 73C385.179 73 384.729 73.1467 384.322 73.44C383.922 73.7267 383.635 74.0533 383.462 74.42V82H381.102ZM395.711 82.16C394.844 82.16 394.168 81.94 393.681 81.5C393.201 81.0533 392.961 80.4167 392.961 79.59V74.07C392.961 73.85 393.008 73.6533 393.101 73.48C393.194 73.3 393.331 73.1867 393.511 73.14L392.961 71.52V71.23L393.491 67.96H395.291V79C395.291 79.3867 395.374 79.6567 395.541 79.81C395.714 79.9633 396.034 80.04 396.501 80.04C396.801 80.04 397.078 80.04 397.331 80.04C397.584 80.0333 397.814 80.0267 398.021 80.02V82.03C397.674 82.09 397.294 82.1267 396.881 82.14C396.468 82.1533 396.078 82.16 395.711 82.16ZM391.531 73.14V71.08H398.041V73.14H391.531ZM408.106 82.15C407.099 82.15 406.223 81.9333 405.476 81.5C404.729 81.0667 404.149 80.43 403.736 79.59C403.323 78.7433 403.116 77.7067 403.116 76.48C403.116 75.32 403.333 74.32 403.766 73.48C404.206 72.64 404.806 71.9967 405.566 71.55C406.326 71.0967 407.186 70.87 408.146 70.87C409.186 70.87 410.076 71.0967 410.816 71.55C411.563 71.9967 412.136 72.64 412.536 73.48C412.936 74.32 413.136 75.32 413.136 76.48C413.136 77.7067 412.913 78.7433 412.466 79.59C412.026 80.43 411.426 81.0667 410.666 81.5C409.906 81.9333 409.053 82.15 408.106 82.15ZM408.146 80.14C408.913 80.14 409.539 79.8533 410.026 79.28C410.513 78.7067 410.756 77.7733 410.756 76.48C410.756 75.28 410.519 74.38 410.046 73.78C409.573 73.18 408.926 72.88 408.106 72.88C407.339 72.88 406.713 73.1767 406.226 73.77C405.746 74.3633 405.506 75.2667 405.506 76.48C405.506 77.7133 405.749 78.6333 406.236 79.24C406.729 79.84 407.366 80.14 408.146 80.14ZM415.944 82V74.09C415.944 73.8567 415.991 73.6533 416.084 73.48C416.177 73.3067 416.307 73.1933 416.474 73.14L415.944 71.53V69.79C415.944 68.9367 416.114 68.23 416.454 67.67C416.794 67.1033 417.247 66.6833 417.814 66.41C418.387 66.13 419.017 65.99 419.704 65.99C420.044 65.99 420.324 66 420.544 66.02C420.764 66.04 420.961 66.06 421.134 66.08L421.124 68.31C420.977 68.2567 420.797 68.21 420.584 68.17C420.377 68.13 420.121 68.11 419.814 68.11C419.467 68.11 419.177 68.1667 418.944 68.28C418.717 68.3933 418.547 68.5933 418.434 68.88C418.327 69.1667 418.274 69.57 418.274 70.09V82H415.944ZM414.324 73.14V71.08H420.734V73.14H414.324ZM430.766 82.19C429.686 82.19 428.76 81.9533 427.986 81.48C427.213 81 426.62 80.3333 426.206 79.48C425.8 78.6267 425.596 77.6367 425.596 76.51C425.596 75.3233 425.806 74.31 426.226 73.47C426.646 72.63 427.23 71.99 427.976 71.55C428.723 71.1033 429.583 70.88 430.556 70.88C431.523 70.88 432.333 71.06 432.986 71.42C433.646 71.7733 434.14 72.25 434.466 72.85C434.793 73.4433 434.943 74.1067 434.916 74.84H432.646C432.64 74.5467 432.593 74.28 432.506 74.04C432.42 73.7933 432.29 73.5867 432.116 73.42C431.95 73.2467 431.736 73.1133 431.476 73.02C431.216 72.9267 430.913 72.88 430.566 72.88C429.633 72.8733 428.97 73.1933 428.576 73.84C428.19 74.4867 427.996 75.36 427.996 76.46C427.996 77.7133 428.23 78.65 428.696 79.27C429.17 79.8833 429.906 80.1933 430.906 80.2C431.14 80.2 431.393 80.1333 431.666 80C431.946 79.86 432.183 79.6633 432.376 79.41C432.576 79.15 432.673 78.84 432.666 78.48H434.916C434.943 79.2467 434.76 79.9067 434.366 80.46C433.98 81.0133 433.466 81.44 432.826 81.74C432.186 82.04 431.5 82.19 430.766 82.19ZM441.329 82.15C440.322 82.15 439.445 81.9333 438.699 81.5C437.952 81.0667 437.372 80.43 436.959 79.59C436.545 78.7433 436.339 77.7067 436.339 76.48C436.339 75.32 436.555 74.32 436.989 73.48C437.429 72.64 438.029 71.9967 438.789 71.55C439.549 71.0967 440.409 70.87 441.369 70.87C442.409 70.87 443.299 71.0967 444.039 71.55C444.785 71.9967 445.359 72.64 445.759 73.48C446.159 74.32 446.359 75.32 446.359 76.48C446.359 77.7067 446.135 78.7433 445.689 79.59C445.249 80.43 444.649 81.0667 443.889 81.5C443.129 81.9333 442.275 82.15 441.329 82.15ZM441.369 80.14C442.135 80.14 442.762 79.8533 443.249 79.28C443.735 78.7067 443.979 77.7733 443.979 76.48C443.979 75.28 443.742 74.38 443.269 73.78C442.795 73.18 442.149 72.88 441.329 72.88C440.562 72.88 439.935 73.1767 439.449 73.77C438.969 74.3633 438.729 75.2667 438.729 76.48C438.729 77.7133 438.972 78.6333 439.459 79.24C439.952 79.84 440.589 80.14 441.369 80.14ZM448.641 82V71.08H450.661L450.921 75.2L450.751 74.37C450.831 73.77 450.988 73.2033 451.221 72.67C451.461 72.13 451.818 71.6933 452.291 71.36C452.764 71.0267 453.398 70.86 454.191 70.86C455.224 70.86 456.024 71.1833 456.591 71.83C457.158 72.47 457.441 73.45 457.441 74.77V82H455.081V75.59C455.081 74.9633 455.018 74.46 454.891 74.08C454.771 73.7 454.574 73.4267 454.301 73.26C454.028 73.0867 453.664 73 453.211 73C452.718 73 452.268 73.1467 451.861 73.44C451.461 73.7267 451.174 74.0533 451.001 74.42V82H448.641ZM463.25 82.16C462.383 82.16 461.707 81.94 461.22 81.5C460.74 81.0533 460.5 80.4167 460.5 79.59V74.07C460.5 73.85 460.547 73.6533 460.64 73.48C460.733 73.3 460.87 73.1867 461.05 73.14L460.5 71.52V71.23L461.03 67.96H462.83V79C462.83 79.3867 462.913 79.6567 463.08 79.81C463.253 79.9633 463.573 80.04 464.04 80.04C464.34 80.04 464.617 80.04 464.87 80.04C465.123 80.0333 465.353 80.0267 465.56 80.02V82.03C465.213 82.09 464.833 82.1267 464.42 82.14C464.007 82.1533 463.617 82.16 463.25 82.16ZM459.07 73.14V71.08H465.58V73.14H459.07ZM470.472 82.12C469.805 82.12 469.215 81.9967 468.702 81.75C468.188 81.4967 467.785 81.1467 467.492 80.7C467.205 80.2533 467.062 79.7367 467.062 79.15C467.062 78.5033 467.178 77.97 467.412 77.55C467.645 77.13 467.982 76.7967 468.422 76.55C468.868 76.2967 469.392 76.1033 469.992 75.97C470.418 75.8767 470.868 75.8 471.342 75.74C471.822 75.68 472.265 75.6333 472.672 75.6C473.078 75.56 473.392 75.5333 473.612 75.52V75.08C473.612 74.34 473.462 73.7867 473.162 73.42C472.868 73.0467 472.368 72.86 471.662 72.86C471.208 72.86 470.828 72.9167 470.522 73.03C470.215 73.1367 469.982 73.3433 469.822 73.65C469.668 73.95 469.585 74.39 469.572 74.97H467.422C467.348 74.03 467.482 73.26 467.822 72.66C468.168 72.0533 468.682 71.6067 469.362 71.32C470.048 71.0267 470.858 70.88 471.792 70.88C472.345 70.88 472.865 70.9433 473.352 71.07C473.845 71.19 474.282 71.4 474.662 71.7C475.042 71.9933 475.342 72.3967 475.562 72.91C475.782 73.4233 475.892 74.0733 475.892 74.86V82H473.582L473.612 79.55C473.485 80.29 473.165 80.9033 472.652 81.39C472.138 81.8767 471.412 82.12 470.472 82.12ZM471.102 80.34C471.448 80.34 471.798 80.28 472.152 80.16C472.512 80.04 472.825 79.8667 473.092 79.64C473.365 79.4133 473.538 79.1467 473.612 78.84V76.84C473.345 76.8667 473.028 76.9133 472.662 76.98C472.302 77.0467 471.992 77.1067 471.732 77.16C470.985 77.3133 470.445 77.5167 470.112 77.77C469.785 78.0167 469.622 78.3967 469.622 78.91C469.622 79.2033 469.688 79.46 469.822 79.68C469.962 79.8933 470.145 80.0567 470.372 80.17C470.598 80.2833 470.842 80.34 471.102 80.34ZM478.798 82V71.08H481.188L481.158 82H478.798ZM480.008 69.47C479.574 69.47 479.208 69.32 478.908 69.02C478.608 68.7133 478.458 68.3233 478.458 67.85C478.458 67.3833 478.608 67.0033 478.908 66.71C479.208 66.4167 479.574 66.27 480.008 66.27C480.428 66.27 480.788 66.4167 481.088 66.71C481.394 67.0033 481.548 67.3833 481.548 67.85C481.548 68.3233 481.394 68.7133 481.088 69.02C480.788 69.32 480.428 69.47 480.008 69.47ZM484.149 82V71.08H486.169L486.429 75.2L486.259 74.37C486.339 73.77 486.496 73.2033 486.729 72.67C486.969 72.13 487.326 71.6933 487.799 71.36C488.272 71.0267 488.906 70.86 489.699 70.86C490.732 70.86 491.532 71.1833 492.099 71.83C492.666 72.47 492.949 73.45 492.949 74.77V82H490.589V75.59C490.589 74.9633 490.526 74.46 490.399 74.08C490.279 73.7 490.082 73.4267 489.809 73.26C489.536 73.0867 489.172 73 488.719 73C488.226 73 487.776 73.1467 487.369 73.44C486.969 73.7267 486.682 74.0533 486.509 74.42V82H484.149ZM500.266 82.15C499.212 82.15 498.299 81.9367 497.526 81.51C496.759 81.0767 496.169 80.44 495.756 79.6C495.342 78.76 495.136 77.73 495.136 76.51C495.136 75.3233 495.352 74.31 495.786 73.47C496.226 72.6233 496.829 71.98 497.596 71.54C498.362 71.0933 499.242 70.87 500.236 70.87C501.216 70.87 502.052 71.0633 502.746 71.45C503.446 71.8367 503.979 72.41 504.346 73.17C504.712 73.9233 504.896 74.85 504.896 75.95C504.896 76.1633 504.889 76.34 504.876 76.48C504.869 76.62 504.859 76.7867 504.846 76.98H497.486C497.546 78.0933 497.819 78.9133 498.306 79.44C498.792 79.96 499.389 80.22 500.096 80.22C500.756 80.22 501.259 80.08 501.606 79.8C501.959 79.5133 502.186 79.1933 502.286 78.84H504.566C504.506 79.54 504.286 80.14 503.906 80.64C503.526 81.1333 503.022 81.51 502.396 81.77C501.776 82.0233 501.066 82.15 500.266 82.15ZM498.566 75.37H502.546C502.526 74.57 502.332 73.9533 501.966 73.52C501.599 73.08 500.996 72.86 500.156 72.86C499.282 72.86 498.632 73.1533 498.206 73.74C497.779 74.32 497.539 75.1233 497.486 76.15C497.539 75.85 497.652 75.6467 497.826 75.54C497.999 75.4267 498.246 75.37 498.566 75.37ZM507.02 82V71.08H509.04L509.3 75.29L509.09 74.71C509.137 74.27 509.223 73.8233 509.35 73.37C509.483 72.9167 509.67 72.5 509.91 72.12C510.157 71.74 510.47 71.4367 510.85 71.21C511.237 70.9767 511.707 70.86 512.26 70.86C512.393 70.86 512.527 70.8667 512.66 70.88C512.793 70.8933 512.917 70.9167 513.03 70.95V73.47C512.803 73.3967 512.56 73.35 512.3 73.33C512.047 73.3033 511.813 73.29 511.6 73.29C511.34 73.29 511.06 73.3433 510.76 73.45C510.46 73.55 510.183 73.7033 509.93 73.91C509.677 74.1167 509.493 74.3733 509.38 74.68V82H507.02ZM518.444 82.17C517.624 82.17 516.891 82.05 516.244 81.81C515.604 81.57 515.094 81.2 514.714 80.7C514.341 80.1933 514.134 79.5467 514.094 78.76H516.374C516.461 79.32 516.684 79.7167 517.044 79.95C517.411 80.1833 517.861 80.3 518.394 80.3C518.781 80.3 519.124 80.2633 519.424 80.19C519.731 80.11 519.971 79.98 520.144 79.8C520.324 79.6133 520.414 79.3633 520.414 79.05C520.414 78.83 520.364 78.65 520.264 78.51C520.171 78.3633 520.024 78.2367 519.824 78.13C519.631 78.0233 519.384 77.9233 519.084 77.83C518.791 77.7367 518.451 77.6333 518.064 77.52C517.371 77.32 516.741 77.0833 516.174 76.81C515.607 76.5367 515.157 76.18 514.824 75.74C514.491 75.2933 514.324 74.7133 514.324 74C514.324 73.0267 514.684 72.2667 515.404 71.72C516.124 71.1667 517.051 70.89 518.184 70.89C518.917 70.89 519.577 70.9967 520.164 71.21C520.757 71.4167 521.244 71.7633 521.624 72.25C522.004 72.73 522.251 73.3833 522.364 74.21L520.084 74.2C519.984 73.8133 519.837 73.5167 519.644 73.31C519.451 73.0967 519.227 72.95 518.974 72.87C518.727 72.7833 518.457 72.74 518.164 72.74C517.844 72.74 517.567 72.79 517.334 72.89C517.101 72.99 516.921 73.13 516.794 73.31C516.667 73.49 516.604 73.7067 516.604 73.96C516.604 74.2533 516.687 74.5 516.854 74.7C517.027 74.8933 517.284 75.0633 517.624 75.21C517.971 75.35 518.401 75.4967 518.914 75.65C519.327 75.77 519.754 75.9033 520.194 76.05C520.634 76.19 521.044 76.37 521.424 76.59C521.804 76.81 522.111 77.1033 522.344 77.47C522.577 77.83 522.694 78.3 522.694 78.88C522.694 79.9133 522.304 80.72 521.524 81.3C520.751 81.88 519.724 82.17 518.444 82.17ZM531.312 82.12C530.645 82.12 530.055 81.9967 529.542 81.75C529.028 81.4967 528.625 81.1467 528.332 80.7C528.045 80.2533 527.902 79.7367 527.902 79.15C527.902 78.5033 528.018 77.97 528.252 77.55C528.485 77.13 528.822 76.7967 529.262 76.55C529.708 76.2967 530.232 76.1033 530.832 75.97C531.258 75.8767 531.708 75.8 532.182 75.74C532.662 75.68 533.105 75.6333 533.512 75.6C533.918 75.56 534.232 75.5333 534.452 75.52V75.08C534.452 74.34 534.302 73.7867 534.002 73.42C533.708 73.0467 533.208 72.86 532.502 72.86C532.048 72.86 531.668 72.9167 531.362 73.03C531.055 73.1367 530.822 73.3433 530.662 73.65C530.508 73.95 530.425 74.39 530.412 74.97H528.262C528.188 74.03 528.322 73.26 528.662 72.66C529.008 72.0533 529.522 71.6067 530.202 71.32C530.888 71.0267 531.698 70.88 532.632 70.88C533.185 70.88 533.705 70.9433 534.192 71.07C534.685 71.19 535.122 71.4 535.502 71.7C535.882 71.9933 536.182 72.3967 536.402 72.91C536.622 73.4233 536.732 74.0733 536.732 74.86V82H534.422L534.452 79.55C534.325 80.29 534.005 80.9033 533.492 81.39C532.978 81.8767 532.252 82.12 531.312 82.12ZM531.942 80.34C532.288 80.34 532.638 80.28 532.992 80.16C533.352 80.04 533.665 79.8667 533.932 79.64C534.205 79.4133 534.378 79.1467 534.452 78.84V76.84C534.185 76.8667 533.868 76.9133 533.502 76.98C533.142 77.0467 532.832 77.1067 532.572 77.16C531.825 77.3133 531.285 77.5167 530.952 77.77C530.625 78.0167 530.462 78.3967 530.462 78.91C530.462 79.2033 530.528 79.46 530.662 79.68C530.802 79.8933 530.985 80.0567 531.212 80.17C531.438 80.2833 531.682 80.34 531.942 80.34ZM539.657 82V71.08H541.677L541.937 75.2L541.767 74.37C541.847 73.77 542.003 73.2033 542.237 72.67C542.477 72.13 542.833 71.6933 543.307 71.36C543.78 71.0267 544.413 70.86 545.207 70.86C546.24 70.86 547.04 71.1833 547.607 71.83C548.173 72.47 548.457 73.45 548.457 74.77V82H546.097V75.59C546.097 74.9633 546.033 74.46 545.907 74.08C545.787 73.7 545.59 73.4267 545.317 73.26C545.043 73.0867 544.68 73 544.227 73C543.733 73 543.283 73.1467 542.877 73.44C542.477 73.7267 542.19 74.0533 542.017 74.42V82H539.657ZM554.966 82.12C554.026 82.12 553.239 81.8767 552.606 81.39C551.973 80.9033 551.496 80.2367 551.176 79.39C550.856 78.5367 550.696 77.5667 550.696 76.48C550.696 75.2467 550.903 74.2167 551.316 73.39C551.736 72.5567 552.276 71.93 552.936 71.51C553.596 71.09 554.299 70.88 555.046 70.88C555.773 70.88 556.343 71 556.756 71.24C557.169 71.48 557.473 71.76 557.666 72.08C557.859 72.4 557.983 72.6867 558.036 72.94L558.726 73.03L557.906 73.88C557.853 73.7133 557.746 73.5533 557.586 73.4C557.433 73.24 557.209 73.11 556.916 73.01C556.629 72.91 556.256 72.86 555.796 72.86C555.016 72.86 554.373 73.1467 553.866 73.72C553.359 74.2933 553.106 75.23 553.106 76.53C553.106 77.6967 553.336 78.6 553.796 79.24C554.263 79.88 554.869 80.2 555.616 80.2C556.123 80.2 556.533 80.1167 556.846 79.95C557.166 79.7833 557.413 79.5933 557.586 79.38C557.759 79.16 557.866 78.98 557.906 78.84L558.006 79.18L557.906 79.54C557.873 79.7533 557.806 80.0067 557.706 80.3C557.606 80.5867 557.446 80.87 557.226 81.15C557.013 81.43 556.723 81.6633 556.356 81.85C555.989 82.03 555.526 82.12 554.966 82.12ZM557.916 82L557.906 66.44H560.256V82H557.916ZM570.474 82.12C569.534 82.12 568.747 81.8767 568.114 81.39C567.48 80.9033 567.004 80.2367 566.684 79.39C566.364 78.5367 566.204 77.5667 566.204 76.48C566.204 75.2467 566.41 74.2167 566.824 73.39C567.244 72.5567 567.784 71.93 568.444 71.51C569.104 71.09 569.807 70.88 570.554 70.88C571.28 70.88 571.85 71 572.264 71.24C572.677 71.48 572.98 71.76 573.174 72.08C573.367 72.4 573.49 72.6867 573.544 72.94L574.234 73.03L573.414 73.88C573.36 73.7133 573.254 73.5533 573.094 73.4C572.94 73.24 572.717 73.11 572.424 73.01C572.137 72.91 571.764 72.86 571.304 72.86C570.524 72.86 569.88 73.1467 569.374 73.72C568.867 74.2933 568.614 75.23 568.614 76.53C568.614 77.6967 568.844 78.6 569.304 79.24C569.77 79.88 570.377 80.2 571.124 80.2C571.63 80.2 572.04 80.1167 572.354 79.95C572.674 79.7833 572.92 79.5933 573.094 79.38C573.267 79.16 573.374 78.98 573.414 78.84L573.514 79.18L573.414 79.54C573.38 79.7533 573.314 80.0067 573.214 80.3C573.114 80.5867 572.954 80.87 572.734 81.15C572.52 81.43 572.23 81.6633 571.864 81.85C571.497 82.03 571.034 82.12 570.474 82.12ZM573.424 82L573.414 66.44H575.764V82H573.424ZM583.117 82.15C582.064 82.15 581.151 81.9367 580.377 81.51C579.611 81.0767 579.021 80.44 578.607 79.6C578.194 78.76 577.987 77.73 577.987 76.51C577.987 75.3233 578.204 74.31 578.637 73.47C579.077 72.6233 579.681 71.98 580.447 71.54C581.214 71.0933 582.094 70.87 583.087 70.87C584.067 70.87 584.904 71.0633 585.597 71.45C586.297 71.8367 586.831 72.41 587.197 73.17C587.564 73.9233 587.747 74.85 587.747 75.95C587.747 76.1633 587.741 76.34 587.727 76.48C587.721 76.62 587.711 76.7867 587.697 76.98H580.337C580.397 78.0933 580.671 78.9133 581.157 79.44C581.644 79.96 582.241 80.22 582.947 80.22C583.607 80.22 584.111 80.08 584.457 79.8C584.811 79.5133 585.037 79.1933 585.137 78.84H587.417C587.357 79.54 587.137 80.14 586.757 80.64C586.377 81.1333 585.874 81.51 585.247 81.77C584.627 82.0233 583.917 82.15 583.117 82.15ZM581.417 75.37H585.397C585.377 74.57 585.184 73.9533 584.817 73.52C584.451 73.08 583.847 72.86 583.007 72.86C582.134 72.86 581.484 73.1533 581.057 73.74C580.631 74.32 580.391 75.1233 580.337 76.15C580.391 75.85 580.504 75.6467 580.677 75.54C580.851 75.4267 581.097 75.37 581.417 75.37ZM589.892 82V66.44H592.252V82H589.892ZM595.243 82V71.08H597.633L597.603 82H595.243ZM596.453 69.47C596.02 69.47 595.653 69.32 595.353 69.02C595.053 68.7133 594.903 68.3233 594.903 67.85C594.903 67.3833 595.053 67.0033 595.353 66.71C595.653 66.4167 596.02 66.27 596.453 66.27C596.873 66.27 597.233 66.4167 597.533 66.71C597.84 67.0033 597.993 67.3833 597.993 67.85C597.993 68.3233 597.84 68.7133 597.533 69.02C597.233 69.32 596.873 69.47 596.453 69.47ZM603.157 82L599.357 71.09H602.037L603.437 76.15L604.387 79.68H604.477L605.427 76.16L606.827 71.09H609.507L605.707 82H603.157ZM615.598 82.15C614.544 82.15 613.631 81.9367 612.858 81.51C612.091 81.0767 611.501 80.44 611.088 79.6C610.674 78.76 610.468 77.73 610.468 76.51C610.468 75.3233 610.684 74.31 611.118 73.47C611.558 72.6233 612.161 71.98 612.928 71.54C613.694 71.0933 614.574 70.87 615.568 70.87C616.548 70.87 617.384 71.0633 618.078 71.45C618.778 71.8367 619.311 72.41 619.678 73.17C620.044 73.9233 620.228 74.85 620.228 75.95C620.228 76.1633 620.221 76.34 620.208 76.48C620.201 76.62 620.191 76.7867 620.178 76.98H612.818C612.878 78.0933 613.151 78.9133 613.638 79.44C614.124 79.96 614.721 80.22 615.428 80.22C616.088 80.22 616.591 80.08 616.938 79.8C617.291 79.5133 617.518 79.1933 617.618 78.84H619.898C619.838 79.54 619.618 80.14 619.238 80.64C618.858 81.1333 618.354 81.51 617.728 81.77C617.108 82.0233 616.398 82.15 615.598 82.15ZM613.898 75.37H617.878C617.858 74.57 617.664 73.9533 617.298 73.52C616.931 73.08 616.328 72.86 615.488 72.86C614.614 72.86 613.964 73.1533 613.538 73.74C613.111 74.32 612.871 75.1233 612.818 76.15C612.871 75.85 612.984 75.6467 613.158 75.54C613.331 75.4267 613.578 75.37 613.898 75.37ZM622.352 82V71.08H624.372L624.632 75.29L624.422 74.71C624.469 74.27 624.555 73.8233 624.682 73.37C624.815 72.9167 625.002 72.5 625.242 72.12C625.489 71.74 625.802 71.4367 626.182 71.21C626.569 70.9767 627.039 70.86 627.592 70.86C627.725 70.86 627.859 70.8667 627.992 70.88C628.125 70.8933 628.249 70.9167 628.362 70.95V73.47C628.135 73.3967 627.892 73.35 627.632 73.33C627.379 73.3033 627.145 73.29 626.932 73.29C626.672 73.29 626.392 73.3433 626.092 73.45C625.792 73.55 625.515 73.7033 625.262 73.91C625.009 74.1167 624.825 74.3733 624.712 74.68V82H622.352ZM630.126 82V71.08H632.516L632.486 82H630.126ZM631.336 69.47C630.903 69.47 630.536 69.32 630.236 69.02C629.936 68.7133 629.786 68.3233 629.786 67.85C629.786 67.3833 629.936 67.0033 630.236 66.71C630.536 66.4167 630.903 66.27 631.336 66.27C631.756 66.27 632.116 66.4167 632.416 66.71C632.723 67.0033 632.876 67.3833 632.876 67.85C632.876 68.3233 632.723 68.7133 632.416 69.02C632.116 69.32 631.756 69.47 631.336 69.47ZM639.856 82.15C638.802 82.15 637.889 81.9367 637.116 81.51C636.349 81.0767 635.759 80.44 635.346 79.6C634.932 78.76 634.726 77.73 634.726 76.51C634.726 75.3233 634.942 74.31 635.376 73.47C635.816 72.6233 636.419 71.98 637.186 71.54C637.952 71.0933 638.832 70.87 639.826 70.87C640.806 70.87 641.642 71.0633 642.336 71.45C643.036 71.8367 643.569 72.41 643.936 73.17C644.302 73.9233 644.486 74.85 644.486 75.95C644.486 76.1633 644.479 76.34 644.466 76.48C644.459 76.62 644.449 76.7867 644.436 76.98H637.076C637.136 78.0933 637.409 78.9133 637.896 79.44C638.382 79.96 638.979 80.22 639.686 80.22C640.346 80.22 640.849 80.08 641.196 79.8C641.549 79.5133 641.776 79.1933 641.876 78.84H644.156C644.096 79.54 643.876 80.14 643.496 80.64C643.116 81.1333 642.612 81.51 641.986 81.77C641.366 82.0233 640.656 82.15 639.856 82.15ZM638.156 75.37H642.136C642.116 74.57 641.922 73.9533 641.556 73.52C641.189 73.08 640.586 72.86 639.746 72.86C638.872 72.86 638.222 73.1533 637.796 73.74C637.369 74.32 637.129 75.1233 637.076 76.15C637.129 75.85 637.242 75.6467 637.416 75.54C637.589 75.4267 637.836 75.37 638.156 75.37ZM650.553 82.17C649.733 82.17 649 82.05 648.353 81.81C647.713 81.57 647.203 81.2 646.823 80.7C646.45 80.1933 646.243 79.5467 646.203 78.76H648.483C648.57 79.32 648.793 79.7167 649.153 79.95C649.52 80.1833 649.97 80.3 650.503 80.3C650.89 80.3 651.233 80.2633 651.533 80.19C651.84 80.11 652.08 79.98 652.253 79.8C652.433 79.6133 652.523 79.3633 652.523 79.05C652.523 78.83 652.473 78.65 652.373 78.51C652.28 78.3633 652.133 78.2367 651.933 78.13C651.74 78.0233 651.493 77.9233 651.193 77.83C650.9 77.7367 650.56 77.6333 650.173 77.52C649.48 77.32 648.85 77.0833 648.283 76.81C647.717 76.5367 647.267 76.18 646.933 75.74C646.6 75.2933 646.433 74.7133 646.433 74C646.433 73.0267 646.793 72.2667 647.513 71.72C648.233 71.1667 649.16 70.89 650.293 70.89C651.027 70.89 651.687 70.9967 652.273 71.21C652.867 71.4167 653.353 71.7633 653.733 72.25C654.113 72.73 654.36 73.3833 654.473 74.21L652.193 74.2C652.093 73.8133 651.947 73.5167 651.753 73.31C651.56 73.0967 651.337 72.95 651.083 72.87C650.837 72.7833 650.567 72.74 650.273 72.74C649.953 72.74 649.677 72.79 649.443 72.89C649.21 72.99 649.03 73.13 648.903 73.31C648.777 73.49 648.713 73.7067 648.713 73.96C648.713 74.2533 648.797 74.5 648.963 74.7C649.137 74.8933 649.393 75.0633 649.733 75.21C650.08 75.35 650.51 75.4967 651.023 75.65C651.437 75.77 651.863 75.9033 652.303 76.05C652.743 76.19 653.153 76.37 653.533 76.59C653.913 76.81 654.22 77.1033 654.453 77.47C654.687 77.83 654.803 78.3 654.803 78.88C654.803 79.9133 654.413 80.72 653.633 81.3C652.86 81.88 651.833 82.17 650.553 82.17ZM318.28 106V95.08H320.31L320.57 99.2L320.4 98.37C320.48 97.77 320.636 97.2033 320.87 96.67C321.103 96.13 321.456 95.6933 321.93 95.36C322.403 95.0267 323.033 94.86 323.82 94.86C324.693 94.86 325.396 95.11 325.93 95.61C326.47 96.1033 326.803 96.8633 326.93 97.89L326.98 98.05V106H324.61V99.59C324.61 98.9633 324.55 98.46 324.43 98.08C324.31 97.7 324.12 97.4267 323.86 97.26C323.606 97.0867 323.27 97 322.85 97C322.356 97 321.91 97.1467 321.51 97.44C321.11 97.7267 320.823 98.0533 320.65 98.42V106H318.28ZM330.94 106V99.59C330.94 98.9633 330.88 98.46 330.76 98.08C330.64 97.7 330.45 97.4267 330.19 97.26C329.936 97.0867 329.6 97 329.18 97C328.686 97 328.24 97.1467 327.84 97.44C327.44 97.7267 327.153 98.0533 326.98 98.42L326.96 99.2L326.8 98.55C326.866 97.9567 327.01 97.38 327.23 96.82C327.456 96.2533 327.803 95.7867 328.27 95.42C328.736 95.0467 329.363 94.86 330.15 94.86C331.136 94.86 331.91 95.1833 332.47 95.83C333.03 96.47 333.31 97.45 333.31 98.77V106H330.94ZM338.939 106.12C338.272 106.12 337.682 105.997 337.169 105.75C336.655 105.497 336.252 105.147 335.959 104.7C335.672 104.253 335.529 103.737 335.529 103.15C335.529 102.503 335.645 101.97 335.879 101.55C336.112 101.13 336.449 100.797 336.889 100.55C337.335 100.297 337.859 100.103 338.459 99.97C338.885 99.8767 339.335 99.8 339.809 99.74C340.289 99.68 340.732 99.6333 341.139 99.6C341.545 99.56 341.859 99.5333 342.079 99.52V99.08C342.079 98.34 341.929 97.7867 341.629 97.42C341.335 97.0467 340.835 96.86 340.129 96.86C339.675 96.86 339.295 96.9167 338.989 97.03C338.682 97.1367 338.449 97.3433 338.289 97.65C338.135 97.95 338.052 98.39 338.039 98.97H335.889C335.815 98.03 335.949 97.26 336.289 96.66C336.635 96.0533 337.149 95.6067 337.829 95.32C338.515 95.0267 339.325 94.88 340.259 94.88C340.812 94.88 341.332 94.9433 341.819 95.07C342.312 95.19 342.749 95.4 343.129 95.7C343.509 95.9933 343.809 96.3967 344.029 96.91C344.249 97.4233 344.359 98.0733 344.359 98.86V106H342.049L342.079 103.55C341.952 104.29 341.632 104.903 341.119 105.39C340.605 105.877 339.879 106.12 338.939 106.12ZM339.569 104.34C339.915 104.34 340.265 104.28 340.619 104.16C340.979 104.04 341.292 103.867 341.559 103.64C341.832 103.413 342.005 103.147 342.079 102.84V100.84C341.812 100.867 341.495 100.913 341.129 100.98C340.769 101.047 340.459 101.107 340.199 101.16C339.452 101.313 338.912 101.517 338.579 101.77C338.252 102.017 338.089 102.397 338.089 102.91C338.089 103.203 338.155 103.46 338.289 103.68C338.429 103.893 338.612 104.057 338.839 104.17C339.065 104.283 339.309 104.34 339.569 104.34ZM350.855 106.12C349.915 106.12 349.128 105.877 348.495 105.39C347.861 104.903 347.385 104.237 347.065 103.39C346.745 102.537 346.585 101.567 346.585 100.48C346.585 99.2467 346.791 98.2167 347.205 97.39C347.625 96.5567 348.165 95.93 348.825 95.51C349.485 95.09 350.188 94.88 350.935 94.88C351.661 94.88 352.231 95 352.645 95.24C353.058 95.48 353.361 95.76 353.555 96.08C353.748 96.4 353.871 96.6867 353.925 96.94L354.615 97.03L353.795 97.88C353.741 97.7133 353.635 97.5533 353.475 97.4C353.321 97.24 353.098 97.11 352.805 97.01C352.518 96.91 352.145 96.86 351.685 96.86C350.905 96.86 350.261 97.1467 349.755 97.72C349.248 98.2933 348.995 99.23 348.995 100.53C348.995 101.697 349.225 102.6 349.685 103.24C350.151 103.88 350.758 104.2 351.505 104.2C352.011 104.2 352.421 104.117 352.735 103.95C353.055 103.783 353.301 103.593 353.475 103.38C353.648 103.16 353.755 102.98 353.795 102.84L353.895 103.18L353.795 103.54C353.761 103.753 353.695 104.007 353.595 104.3C353.495 104.587 353.335 104.87 353.115 105.15C352.901 105.43 352.611 105.663 352.245 105.85C351.878 106.03 351.415 106.12 350.855 106.12ZM353.805 106L353.795 90.44H356.145V106H353.805ZM363.498 106.15C362.445 106.15 361.532 105.937 360.758 105.51C359.992 105.077 359.402 104.44 358.988 103.6C358.575 102.76 358.368 101.73 358.368 100.51C358.368 99.3233 358.585 98.31 359.018 97.47C359.458 96.6233 360.062 95.98 360.828 95.54C361.595 95.0933 362.475 94.87 363.468 94.87C364.448 94.87 365.285 95.0633 365.978 95.45C366.678 95.8367 367.212 96.41 367.578 97.17C367.945 97.9233 368.128 98.85 368.128 99.95C368.128 100.163 368.122 100.34 368.108 100.48C368.102 100.62 368.092 100.787 368.078 100.98H360.718C360.778 102.093 361.052 102.913 361.538 103.44C362.025 103.96 362.622 104.22 363.328 104.22C363.988 104.22 364.492 104.08 364.838 103.8C365.192 103.513 365.418 103.193 365.518 102.84H367.798C367.738 103.54 367.518 104.14 367.138 104.64C366.758 105.133 366.255 105.51 365.628 105.77C365.008 106.023 364.298 106.15 363.498 106.15ZM361.798 99.37H365.778C365.758 98.57 365.565 97.9533 365.198 97.52C364.832 97.08 364.228 96.86 363.388 96.86C362.515 96.86 361.865 97.1533 361.438 97.74C361.012 98.32 360.772 99.1233 360.718 100.15C360.772 99.85 360.885 99.6467 361.058 99.54C361.232 99.4267 361.478 99.37 361.798 99.37ZM379.057 106.12C378.337 106.12 377.764 106 377.337 105.76C376.91 105.52 376.597 105.24 376.397 104.92C376.197 104.593 376.07 104.307 376.017 104.06L375.497 103.59L376.147 103.31C376.194 103.477 376.297 103.64 376.457 103.8C376.624 103.953 376.857 104.08 377.157 104.18C377.464 104.273 377.84 104.32 378.287 104.32C379.034 104.32 379.65 104.03 380.137 103.45C380.624 102.87 380.867 101.907 380.867 100.56C380.867 99.3467 380.637 98.4333 380.177 97.82C379.724 97.2 379.144 96.89 378.437 96.89C377.937 96.89 377.524 96.96 377.197 97.1C376.877 97.24 376.634 97.4033 376.467 97.59C376.3 97.7767 376.194 97.9433 376.147 98.09L375.997 97.95L376.157 97.57C376.19 97.0633 376.317 96.61 376.537 96.21C376.764 95.8033 377.097 95.48 377.537 95.24C377.984 95 378.547 94.88 379.227 94.88C380.107 94.88 380.847 95.1167 381.447 95.59C382.047 96.0567 382.5 96.7 382.807 97.52C383.12 98.3333 383.277 99.2733 383.277 100.34C383.277 101.307 383.157 102.153 382.917 102.88C382.684 103.6 382.364 104.2 381.957 104.68C381.557 105.16 381.107 105.52 380.607 105.76C380.107 106 379.59 106.12 379.057 106.12ZM373.817 106L373.807 90.44H376.157V95.39L376.167 103.54L376.337 103.92L376.147 104.31L376.047 106H373.817ZM385.347 110.31V108.11H386.207C386.687 108.11 387.057 108.067 387.317 107.98C387.583 107.893 387.78 107.763 387.907 107.59C388.04 107.417 388.137 107.207 388.197 106.96C388.27 106.667 388.35 106.447 388.437 106.3C388.53 106.16 388.64 106.06 388.767 106H387.987L384.427 95.09H387.047L388.297 100.07L389.307 103.68H389.397L390.307 100.08L391.557 95.09H394.157L390.647 106C390.433 106.66 390.203 107.257 389.957 107.79C389.71 108.323 389.423 108.777 389.097 109.15C388.77 109.523 388.37 109.81 387.897 110.01C387.43 110.21 386.867 110.31 386.207 110.31H385.347ZM399.39 110.31V108.11H400.25C400.73 108.11 401.1 108.067 401.36 107.98C401.626 107.893 401.823 107.763 401.95 107.59C402.083 107.417 402.18 107.207 402.24 106.96C402.313 106.667 402.393 106.447 402.48 106.3C402.573 106.16 402.683 106.06 402.81 106H402.03L398.47 95.09H401.09L402.34 100.07L403.35 103.68H403.44L404.35 100.08L405.6 95.09H408.2L404.69 106C404.476 106.66 404.246 107.257 404 107.79C403.753 108.323 403.466 108.777 403.14 109.15C402.813 109.523 402.413 109.81 401.94 110.01C401.473 110.21 400.91 110.31 400.25 110.31H399.39ZM414.131 106.15C413.125 106.15 412.248 105.933 411.501 105.5C410.755 105.067 410.175 104.43 409.761 103.59C409.348 102.743 409.141 101.707 409.141 100.48C409.141 99.32 409.358 98.32 409.791 97.48C410.231 96.64 410.831 95.9967 411.591 95.55C412.351 95.0967 413.211 94.87 414.171 94.87C415.211 94.87 416.101 95.0967 416.841 95.55C417.588 95.9967 418.161 96.64 418.561 97.48C418.961 98.32 419.161 99.32 419.161 100.48C419.161 101.707 418.938 102.743 418.491 103.59C418.051 104.43 417.451 105.067 416.691 105.5C415.931 105.933 415.078 106.15 414.131 106.15ZM414.171 104.14C414.938 104.14 415.565 103.853 416.051 103.28C416.538 102.707 416.781 101.773 416.781 100.48C416.781 99.28 416.545 98.38 416.071 97.78C415.598 97.18 414.951 96.88 414.131 96.88C413.365 96.88 412.738 97.1767 412.251 97.77C411.771 98.3633 411.531 99.2667 411.531 100.48C411.531 101.713 411.775 102.633 412.261 103.24C412.755 103.84 413.391 104.14 414.171 104.14ZM424.503 106.22C423.557 106.22 422.797 105.89 422.223 105.23C421.65 104.57 421.363 103.623 421.363 102.39V95.08H423.723V101.76C423.723 102.293 423.783 102.733 423.903 103.08C424.023 103.427 424.213 103.68 424.473 103.84C424.733 104 425.07 104.08 425.483 104.08C425.983 104.08 426.433 103.937 426.833 103.65C427.24 103.357 427.527 103.027 427.693 102.66V95.08H430.053V106H428.043L427.773 101.88L427.953 102.71C427.873 103.31 427.713 103.877 427.473 104.41C427.24 104.943 426.883 105.38 426.403 105.72C425.93 106.053 425.297 106.22 424.503 106.22ZM433.026 106V95.08H435.046L435.306 99.29L435.096 98.71C435.143 98.27 435.229 97.8233 435.356 97.37C435.489 96.9167 435.676 96.5 435.916 96.12C436.163 95.74 436.476 95.4367 436.856 95.21C437.243 94.9767 437.713 94.86 438.266 94.86C438.399 94.86 438.533 94.8667 438.666 94.88C438.799 94.8933 438.923 94.9167 439.036 94.95V97.47C438.809 97.3967 438.566 97.35 438.306 97.33C438.053 97.3033 437.819 97.29 437.606 97.29C437.346 97.29 437.066 97.3433 436.766 97.45C436.466 97.55 436.189 97.7033 435.936 97.91C435.683 98.1167 435.499 98.3733 435.386 98.68V106H433.026ZM449.702 106.12C448.982 106.12 448.408 106 447.982 105.76C447.555 105.52 447.242 105.24 447.042 104.92C446.842 104.593 446.715 104.307 446.662 104.06L446.142 103.59L446.792 103.31C446.838 103.477 446.942 103.64 447.102 103.8C447.268 103.953 447.502 104.08 447.802 104.18C448.108 104.273 448.485 104.32 448.932 104.32C449.678 104.32 450.295 104.03 450.782 103.45C451.268 102.87 451.512 101.907 451.512 100.56C451.512 99.3467 451.282 98.4333 450.822 97.82C450.368 97.2 449.788 96.89 449.082 96.89C448.582 96.89 448.168 96.96 447.842 97.1C447.522 97.24 447.278 97.4033 447.112 97.59C446.945 97.7767 446.838 97.9433 446.792 98.09L446.642 97.95L446.802 97.57C446.835 97.0633 446.962 96.61 447.182 96.21C447.408 95.8033 447.742 95.48 448.182 95.24C448.628 95 449.192 94.88 449.872 94.88C450.752 94.88 451.492 95.1167 452.092 95.59C452.692 96.0567 453.145 96.7 453.452 97.52C453.765 98.3333 453.922 99.2733 453.922 100.34C453.922 101.307 453.802 102.153 453.562 102.88C453.328 103.6 453.008 104.2 452.602 104.68C452.202 105.16 451.752 105.52 451.252 105.76C450.752 106 450.235 106.12 449.702 106.12ZM444.462 106L444.452 90.44H446.802V95.39L446.812 103.54L446.982 103.92L446.792 104.31L446.692 106H444.462ZM459.308 106.22C458.361 106.22 457.601 105.89 457.028 105.23C456.455 104.57 456.168 103.623 456.168 102.39V95.08H458.528V101.76C458.528 102.293 458.588 102.733 458.708 103.08C458.828 103.427 459.018 103.68 459.278 103.84C459.538 104 459.875 104.08 460.288 104.08C460.788 104.08 461.238 103.937 461.638 103.65C462.045 103.357 462.331 103.027 462.498 102.66V95.08H464.858V106H462.848L462.578 101.88L462.758 102.71C462.678 103.31 462.518 103.877 462.278 104.41C462.045 104.943 461.688 105.38 461.208 105.72C460.735 106.053 460.101 106.22 459.308 106.22ZM471.403 106.17C470.583 106.17 469.85 106.05 469.203 105.81C468.563 105.57 468.053 105.2 467.673 104.7C467.3 104.193 467.093 103.547 467.053 102.76H469.333C469.42 103.32 469.643 103.717 470.003 103.95C470.37 104.183 470.82 104.3 471.353 104.3C471.74 104.3 472.083 104.263 472.383 104.19C472.69 104.11 472.93 103.98 473.103 103.8C473.283 103.613 473.373 103.363 473.373 103.05C473.373 102.83 473.323 102.65 473.223 102.51C473.13 102.363 472.983 102.237 472.783 102.13C472.59 102.023 472.343 101.923 472.043 101.83C471.75 101.737 471.41 101.633 471.023 101.52C470.33 101.32 469.7 101.083 469.133 100.81C468.566 100.537 468.116 100.18 467.783 99.74C467.45 99.2933 467.283 98.7133 467.283 98C467.283 97.0267 467.643 96.2667 468.363 95.72C469.083 95.1667 470.01 94.89 471.143 94.89C471.876 94.89 472.536 94.9967 473.123 95.21C473.716 95.4167 474.203 95.7633 474.583 96.25C474.963 96.73 475.21 97.3833 475.323 98.21L473.043 98.2C472.943 97.8133 472.796 97.5167 472.603 97.31C472.41 97.0967 472.186 96.95 471.933 96.87C471.686 96.7833 471.416 96.74 471.123 96.74C470.803 96.74 470.526 96.79 470.293 96.89C470.06 96.99 469.88 97.13 469.753 97.31C469.626 97.49 469.563 97.7067 469.563 97.96C469.563 98.2533 469.646 98.5 469.813 98.7C469.986 98.8933 470.243 99.0633 470.583 99.21C470.93 99.35 471.36 99.4967 471.873 99.65C472.286 99.77 472.713 99.9033 473.153 100.05C473.593 100.19 474.003 100.37 474.383 100.59C474.763 100.81 475.07 101.103 475.303 101.47C475.536 101.83 475.653 102.3 475.653 102.88C475.653 103.913 475.263 104.72 474.483 105.3C473.71 105.88 472.683 106.17 471.403 106.17ZM477.851 106V95.08H480.241L480.211 106H477.851ZM479.061 93.47C478.627 93.47 478.261 93.32 477.961 93.02C477.661 92.7133 477.511 92.3233 477.511 91.85C477.511 91.3833 477.661 91.0033 477.961 90.71C478.261 90.4167 478.627 90.27 479.061 90.27C479.481 90.27 479.841 90.4167 480.141 90.71C480.447 91.0033 480.601 91.3833 480.601 91.85C480.601 92.3233 480.447 92.7133 480.141 93.02C479.841 93.32 479.481 93.47 479.061 93.47ZM483.202 106V95.08H485.222L485.482 99.2L485.312 98.37C485.392 97.77 485.548 97.2033 485.782 96.67C486.022 96.13 486.378 95.6933 486.852 95.36C487.325 95.0267 487.958 94.86 488.752 94.86C489.785 94.86 490.585 95.1833 491.152 95.83C491.718 96.47 492.002 97.45 492.002 98.77V106H489.642V99.59C489.642 98.9633 489.578 98.46 489.452 98.08C489.332 97.7 489.135 97.4267 488.862 97.26C488.588 97.0867 488.225 97 487.772 97C487.278 97 486.828 97.1467 486.422 97.44C486.022 97.7267 485.735 98.0533 485.562 98.42V106H483.202ZM499.319 106.15C498.265 106.15 497.352 105.937 496.579 105.51C495.812 105.077 495.222 104.44 494.809 103.6C494.395 102.76 494.189 101.73 494.189 100.51C494.189 99.3233 494.405 98.31 494.839 97.47C495.279 96.6233 495.882 95.98 496.649 95.54C497.415 95.0933 498.295 94.87 499.289 94.87C500.269 94.87 501.105 95.0633 501.799 95.45C502.499 95.8367 503.032 96.41 503.399 97.17C503.765 97.9233 503.949 98.85 503.949 99.95C503.949 100.163 503.942 100.34 503.929 100.48C503.922 100.62 503.912 100.787 503.899 100.98H496.539C496.599 102.093 496.872 102.913 497.359 103.44C497.845 103.96 498.442 104.22 499.149 104.22C499.809 104.22 500.312 104.08 500.659 103.8C501.012 103.513 501.239 103.193 501.339 102.84H503.619C503.559 103.54 503.339 104.14 502.959 104.64C502.579 105.133 502.075 105.51 501.449 105.77C500.829 106.023 500.119 106.15 499.319 106.15ZM497.619 99.37H501.599C501.579 98.57 501.385 97.9533 501.019 97.52C500.652 97.08 500.049 96.86 499.209 96.86C498.335 96.86 497.685 97.1533 497.259 97.74C496.832 98.32 496.592 99.1233 496.539 100.15C496.592 99.85 496.705 99.6467 496.879 99.54C497.052 99.4267 497.299 99.37 497.619 99.37ZM510.016 106.17C509.196 106.17 508.463 106.05 507.816 105.81C507.176 105.57 506.666 105.2 506.286 104.7C505.913 104.193 505.706 103.547 505.666 102.76H507.946C508.033 103.32 508.256 103.717 508.616 103.95C508.983 104.183 509.433 104.3 509.966 104.3C510.353 104.3 510.696 104.263 510.996 104.19C511.303 104.11 511.543 103.98 511.716 103.8C511.896 103.613 511.986 103.363 511.986 103.05C511.986 102.83 511.936 102.65 511.836 102.51C511.743 102.363 511.596 102.237 511.396 102.13C511.203 102.023 510.956 101.923 510.656 101.83C510.363 101.737 510.023 101.633 509.636 101.52C508.943 101.32 508.313 101.083 507.746 100.81C507.18 100.537 506.73 100.18 506.396 99.74C506.063 99.2933 505.896 98.7133 505.896 98C505.896 97.0267 506.256 96.2667 506.976 95.72C507.696 95.1667 508.623 94.89 509.756 94.89C510.49 94.89 511.15 94.9967 511.736 95.21C512.33 95.4167 512.816 95.7633 513.196 96.25C513.576 96.73 513.823 97.3833 513.936 98.21L511.656 98.2C511.556 97.8133 511.41 97.5167 511.216 97.31C511.023 97.0967 510.8 96.95 510.546 96.87C510.3 96.7833 510.03 96.74 509.736 96.74C509.416 96.74 509.14 96.79 508.906 96.89C508.673 96.99 508.493 97.13 508.366 97.31C508.24 97.49 508.176 97.7067 508.176 97.96C508.176 98.2533 508.26 98.5 508.426 98.7C508.6 98.8933 508.856 99.0633 509.196 99.21C509.543 99.35 509.973 99.4967 510.486 99.65C510.9 99.77 511.326 99.9033 511.766 100.05C512.206 100.19 512.616 100.37 512.996 100.59C513.376 100.81 513.683 101.103 513.916 101.47C514.15 101.83 514.266 102.3 514.266 102.88C514.266 103.913 513.876 104.72 513.096 105.3C512.323 105.88 511.296 106.17 510.016 106.17ZM520.251 106.17C519.431 106.17 518.697 106.05 518.051 105.81C517.411 105.57 516.901 105.2 516.521 104.7C516.147 104.193 515.941 103.547 515.901 102.76H518.181C518.267 103.32 518.491 103.717 518.851 103.95C519.217 104.183 519.667 104.3 520.201 104.3C520.587 104.3 520.931 104.263 521.231 104.19C521.537 104.11 521.777 103.98 521.951 103.8C522.131 103.613 522.221 103.363 522.221 103.05C522.221 102.83 522.171 102.65 522.071 102.51C521.977 102.363 521.831 102.237 521.631 102.13C521.437 102.023 521.191 101.923 520.891 101.83C520.597 101.737 520.257 101.633 519.871 101.52C519.177 101.32 518.547 101.083 517.981 100.81C517.414 100.537 516.964 100.18 516.631 99.74C516.297 99.2933 516.131 98.7133 516.131 98C516.131 97.0267 516.491 96.2667 517.211 95.72C517.931 95.1667 518.857 94.89 519.991 94.89C520.724 94.89 521.384 94.9967 521.971 95.21C522.564 95.4167 523.051 95.7633 523.431 96.25C523.811 96.73 524.057 97.3833 524.171 98.21L521.891 98.2C521.791 97.8133 521.644 97.5167 521.451 97.31C521.257 97.0967 521.034 96.95 520.781 96.87C520.534 96.7833 520.264 96.74 519.971 96.74C519.651 96.74 519.374 96.79 519.141 96.89C518.907 96.99 518.727 97.13 518.601 97.31C518.474 97.49 518.411 97.7067 518.411 97.96C518.411 98.2533 518.494 98.5 518.661 98.7C518.834 98.8933 519.091 99.0633 519.431 99.21C519.777 99.35 520.207 99.4967 520.721 99.65C521.134 99.77 521.561 99.9033 522.001 100.05C522.441 100.19 522.851 100.37 523.231 100.59C523.611 100.81 523.917 101.103 524.151 101.47C524.384 101.83 524.501 102.3 524.501 102.88C524.501 103.913 524.111 104.72 523.331 105.3C522.557 105.88 521.531 106.17 520.251 106.17ZM530.428 106V95.08H532.458L532.718 99.2L532.548 98.37C532.628 97.77 532.785 97.2033 533.018 96.67C533.252 96.13 533.605 95.6933 534.078 95.36C534.552 95.0267 535.182 94.86 535.968 94.86C536.842 94.86 537.545 95.11 538.078 95.61C538.618 96.1033 538.952 96.8633 539.078 97.89L539.128 98.05V106H536.758V99.59C536.758 98.9633 536.698 98.46 536.578 98.08C536.458 97.7 536.268 97.4267 536.008 97.26C535.755 97.0867 535.418 97 534.998 97C534.505 97 534.058 97.1467 533.658 97.44C533.258 97.7267 532.972 98.0533 532.798 98.42V106H530.428ZM543.088 106V99.59C543.088 98.9633 543.028 98.46 542.908 98.08C542.788 97.7 542.598 97.4267 542.338 97.26C542.085 97.0867 541.748 97 541.328 97C540.835 97 540.388 97.1467 539.988 97.44C539.588 97.7267 539.302 98.0533 539.128 98.42L539.108 99.2L538.948 98.55C539.015 97.9567 539.158 97.38 539.378 96.82C539.605 96.2533 539.952 95.7867 540.418 95.42C540.885 95.0467 541.512 94.86 542.298 94.86C543.285 94.86 544.058 95.1833 544.618 95.83C545.178 96.47 545.458 97.45 545.458 98.77V106H543.088ZM552.647 106.15C551.64 106.15 550.764 105.933 550.017 105.5C549.27 105.067 548.69 104.43 548.277 103.59C547.864 102.743 547.657 101.707 547.657 100.48C547.657 99.32 547.874 98.32 548.307 97.48C548.747 96.64 549.347 95.9967 550.107 95.55C550.867 95.0967 551.727 94.87 552.687 94.87C553.727 94.87 554.617 95.0967 555.357 95.55C556.104 95.9967 556.677 96.64 557.077 97.48C557.477 98.32 557.677 99.32 557.677 100.48C557.677 101.707 557.454 102.743 557.007 103.59C556.567 104.43 555.967 105.067 555.207 105.5C554.447 105.933 553.594 106.15 552.647 106.15ZM552.687 104.14C553.454 104.14 554.08 103.853 554.567 103.28C555.054 102.707 555.297 101.773 555.297 100.48C555.297 99.28 555.06 98.38 554.587 97.78C554.114 97.18 553.467 96.88 552.647 96.88C551.88 96.88 551.254 97.1767 550.767 97.77C550.287 98.3633 550.047 99.2667 550.047 100.48C550.047 101.713 550.29 102.633 550.777 103.24C551.27 103.84 551.907 104.14 552.687 104.14ZM559.959 106V95.08H561.979L562.239 99.2L562.069 98.37C562.149 97.77 562.306 97.2033 562.539 96.67C562.779 96.13 563.136 95.6933 563.609 95.36C564.083 95.0267 564.716 94.86 565.509 94.86C566.543 94.86 567.343 95.1833 567.909 95.83C568.476 96.47 568.759 97.45 568.759 98.77V106H566.399V99.59C566.399 98.9633 566.336 98.46 566.209 98.08C566.089 97.7 565.893 97.4267 565.619 97.26C565.346 97.0867 564.983 97 564.529 97C564.036 97 563.586 97.1467 563.179 97.44C562.779 97.7267 562.493 98.0533 562.319 98.42V106H559.959ZM574.569 106.16C573.702 106.16 573.025 105.94 572.539 105.5C572.059 105.053 571.819 104.417 571.819 103.59V98.07C571.819 97.85 571.865 97.6533 571.959 97.48C572.052 97.3 572.189 97.1867 572.369 97.14L571.819 95.52V95.23L572.349 91.96H574.149V103C574.149 103.387 574.232 103.657 574.399 103.81C574.572 103.963 574.892 104.04 575.359 104.04C575.659 104.04 575.935 104.04 576.189 104.04C576.442 104.033 576.672 104.027 576.879 104.02V106.03C576.532 106.09 576.152 106.127 575.739 106.14C575.325 106.153 574.935 106.16 574.569 106.16ZM570.389 97.14V95.08H576.899V97.14H570.389ZM579.1 106V90.44H581.44V95.09L581.28 98.2L581.37 99.08L581.25 98.37C581.33 97.77 581.483 97.2033 581.71 96.67C581.943 96.13 582.293 95.6933 582.76 95.36C583.233 95.0267 583.867 94.86 584.66 94.86C585.693 94.86 586.49 95.1833 587.05 95.83C587.617 96.47 587.9 97.45 587.9 98.77V106H585.53V99.59C585.53 98.6633 585.393 98 585.12 97.6C584.847 97.2 584.357 97 583.65 97C583.163 97 582.723 97.1633 582.33 97.49C581.943 97.81 581.65 98.1667 581.45 98.56V106H579.1ZM590.858 106V90.44H593.218V106H590.858ZM595.855 110.31V108.11H596.715C597.195 108.11 597.565 108.067 597.825 107.98C598.091 107.893 598.288 107.763 598.415 107.59C598.548 107.417 598.645 107.207 598.705 106.96C598.778 106.667 598.858 106.447 598.945 106.3C599.038 106.16 599.148 106.06 599.275 106H598.495L594.935 95.09H597.555L598.805 100.07L599.815 103.68H599.905L600.815 100.08L602.065 95.09H604.665L601.155 106C600.941 106.66 600.711 107.257 600.465 107.79C600.218 108.323 599.931 108.777 599.605 109.15C599.278 109.523 598.878 109.81 598.405 110.01C597.938 110.21 597.375 110.31 596.715 110.31H595.855ZM607.083 106.15C606.657 106.15 606.293 106.003 605.993 105.71C605.7 105.41 605.553 105.02 605.553 104.54C605.553 104.073 605.7 103.69 605.993 103.39C606.293 103.09 606.657 102.94 607.083 102.94C607.517 102.94 607.88 103.09 608.173 103.39C608.467 103.69 608.613 104.073 608.613 104.54C608.613 105.02 608.463 105.41 608.163 105.71C607.87 106.003 607.51 106.15 607.083 106.15Z" fill="#1C383C"/>
</svg>
