<svg width="38" height="38" viewBox="0 0 38 38" fill="none" xmlns="http://www.w3.org/2000/svg">
<mask id="mask0_521_918" style="mask-type:alpha" maskUnits="userSpaceOnUse" x="0" y="0" width="38" height="38">
<circle cx="19" cy="19" r="18.25" fill="white" stroke="#1C383C" stroke-width="1.5"/>
</mask>
<g mask="url(#mask0_521_918)">
<g clip-path="url(#clip0_521_918)">
<path d="M-13.552 23.8739C-11.9425 28.7637 -8.75998 33.3638 -4.0411 35.5128C-0.814947 36.7781 2.63475 37.3899 6.10387 37.3118C13.7503 37.5558 21.4045 37.2369 29.0032 36.358C35.1 35.6457 41.1967 35.7302 46.0741 31.3475C49.121 28.5778 51.06 24.8151 51.5368 20.7469C51.7531 18.2528 51.6135 15.741 51.1222 13.2854C50.6101 10.2912 49.8053 7.33319 49.0615 4.42346C38.5873 4.42346 27.6376 6.98305 17.1146 7.71954C6.59161 8.45603 -4.06549 8.80616 -14.6616 8.9269C-14.9543 8.9269 -15.3323 8.9269 -15.4176 9.27703C-15.503 9.62716 -15.1616 18.9721 -13.552 23.8739Z" fill="#DADADA" stroke="#1C383C" stroke-width="1.5" stroke-miterlimit="10"/>
<path d="M-25.5506 5.78777C-25.6541 6.06608 -25.701 6.36194 -25.6884 6.65827C-25.6759 6.95461 -25.6042 7.24555 -25.4774 7.51429C-25.194 7.88023 -24.822 8.16945 -24.3957 8.35517C-23.9694 8.5409 -23.5027 8.61711 -23.0387 8.57676C-21.2951 8.6492 -19.3197 8.57676 -19.3197 8.57676C-19.2946 8.96533 -19.1175 9.32892 -18.8261 9.5904C-18.5348 9.85187 -18.152 9.99065 -17.759 9.97729L51.9756 5.32897C52.3757 5.30106 52.7486 5.11809 53.0133 4.81975C53.2781 4.52141 53.4135 4.13175 53.39 3.73526L53.1096 -0.345594C53.0972 -0.541848 53.0456 -0.733717 52.9578 -0.910069C52.8699 -1.08642 52.7476 -1.24375 52.5979 -1.37291C52.4481 -1.50208 52.274 -1.60051 52.0855 -1.66251C51.8971 -1.7245 51.698 -1.74882 51.5 -1.73405L42.489 -1.13038C42.0795 -2.06359 41.479 -2.90265 40.7256 -3.59462C39.9722 -4.2866 39.0821 -4.81649 38.1116 -5.15087C36.261 -5.52523 34.3531 -5.52523 32.5026 -5.15087C21.6382 -3.59338 10.7982 -1.03379 -0.188145 -1.5288C-1.55644 -1.68302 -2.94213 -1.55978 -4.26077 -1.1666C-4.91549 -0.953742 -5.47806 -0.527515 -5.85672 0.0425696C-6.23539 0.612654 -6.4078 1.29296 -6.34585 1.97253C-6.35114 2.00045 -6.35114 2.02911 -6.34585 2.05704L-18.2223 2.8539C-18.4258 2.86699 -18.6245 2.92139 -18.8059 3.01372C-18.9873 3.10604 -19.1476 3.23432 -19.2768 3.39058C-19.406 3.54683 -19.5014 3.72773 -19.557 3.92203C-19.6127 4.11633 -19.6273 4.31989 -19.6002 4.52005V4.91847C-20.8195 4.7253 -24.3922 4.37516 -24.8556 4.677C-25.2097 4.95675 -25.4553 5.34919 -25.5506 5.78777Z" fill="#F49825" stroke="#1C383C" stroke-width="1.5" stroke-miterlimit="10"/>
<path d="M13.1514 12.3558C13.7306 12.6398 14.2396 13.0467 14.6421 13.5475C15.0446 14.0483 15.3308 14.6308 15.4803 15.2534C15.7669 16.5175 15.7669 17.8288 15.4803 19.0928C15.2188 20.7365 14.6303 22.3124 13.7489 23.7291C12.8709 25.0572 11.3833 26.2524 9.85915 25.8902C9.42597 25.7581 9.02707 25.5341 8.69015 25.2338C8.35324 24.9336 8.0864 24.5643 7.90819 24.1516C7.54981 23.3074 7.37131 22.3991 7.38387 21.4834C7.32291 18.6461 8.61541 10.3999 13.1514 12.3558Z" fill="white" stroke="#1C383C" stroke-width="1.5" stroke-miterlimit="10"/>
<path d="M25.5281 11.6434C26.299 11.8827 26.986 12.3326 27.5101 12.9413C28.0343 13.55 28.3743 14.2929 28.4911 15.0844C28.6907 16.6743 28.4549 18.2882 27.8083 19.7569C27.3307 21.1204 26.5469 22.3588 25.5159 23.3789C24.9898 23.8741 24.3545 24.241 23.6602 24.4506C22.966 24.6601 22.232 24.7066 21.5164 24.5863C20.9643 24.4792 20.4558 24.2148 20.0532 23.8257C19.4832 23.1235 19.1696 22.2514 19.1631 21.3506C18.8826 18.1149 20.5166 10.4602 25.5281 11.6434Z" fill="white" stroke="#1C383C" stroke-width="1.5" stroke-miterlimit="10"/>
<path d="M25.1497 15.7002C24.846 16.7839 24.4078 17.8262 23.845 18.8031C23.3932 19.8494 22.6486 20.7459 21.699 21.3868C21.4665 21.5422 21.1841 21.6067 20.9064 21.5679C20.7347 21.5038 20.5839 21.3946 20.4701 21.2521C20.3563 21.1096 20.2837 20.9392 20.2601 20.759C19.7834 19.1099 19.7498 17.3661 20.1626 15.7002C20.3706 14.7431 20.8484 13.864 21.5405 13.1647C22.1136 12.6335 23.7719 11.7159 24.7108 12.3437C25.6497 12.9716 25.3326 14.8792 25.1497 15.7002Z" fill="#1C383C" stroke="#1C383C" stroke-width="1.5" stroke-miterlimit="10"/>
<path d="M11.6514 13.37C12.0281 13.945 12.1839 14.6347 12.0904 15.3138C11.9674 17.7339 11.1183 20.0628 9.6517 22.0026C9.43222 22.2803 9.04203 22.57 8.74938 22.3527C8.66747 22.2729 8.60854 22.1728 8.57868 22.0629C7.98012 19.9866 7.95486 17.7894 8.50552 15.7002C8.68842 14.6498 9.98093 11.2571 11.6514 13.37Z" fill="#1C383C" stroke="#1C383C" stroke-width="1.5" stroke-miterlimit="10"/>
<path d="M18.7363 32.1323C19.9709 32.5038 21.2893 32.5024 22.523 32.1282C23.7567 31.754 24.8497 31.024 25.6622 30.0315" stroke="#1C383C" stroke-width="1.5" stroke-miterlimit="10"/>
<path d="M22.1748 1.12736C26.9156 0.695009 31.6082 -0.153474 36.1973 -1.40808" stroke="#1C383C" stroke-width="1.5" stroke-miterlimit="10"/>
</g>
</g>
<circle cx="19" cy="19" r="18.25" stroke="#1C383C" stroke-width="1.5"/>
<defs>
<clipPath id="clip0_521_918">
<rect width="80.2941" height="44.0322" fill="white" transform="translate(-26.2939 -6.03223)"/>
</clipPath>
</defs>
</svg>
