<svg width="155" height="105" viewBox="0 0 155 105" fill="none" xmlns="http://www.w3.org/2000/svg">
<path d="M0 82.3484H1V86.3206C1 86.3207 1 86.3208 1 86.3209C1.00066 87.4871 1.11652 88.6413 1.34126 89.7683L0.360565 89.9638C0.840067 92.3684 1.78869 94.656 3.15155 96.6942L3.98284 96.1384C4.62169 97.0938 5.35673 97.9914 6.1817 98.8159C7.00666 99.6405 7.90463 100.375 8.86042 101.013L8.30503 101.845C10.344 103.207 12.6321 104.154 15.0369 104.632L15.232 103.652C16.3592 103.876 17.5136 103.991 18.68 103.991H22.8743V104.991H31.2629V103.991H39.6514V104.991H48.04V103.991H56.4286V104.991H64.8171V103.991H73.2057V104.991H81.5943V103.991H89.9829V104.991H98.3714V103.991H106.76V104.991H115.149V103.991H123.537V104.991H131.926V103.991H136.12C137.286 103.991 138.441 103.876 139.568 103.652L139.763 104.632C142.168 104.154 144.456 103.207 146.495 101.845L145.94 101.013C146.895 100.375 147.793 99.6405 148.618 98.8159C149.443 97.9914 150.178 97.0938 150.817 96.1384L151.648 96.6942C153.011 94.656 153.96 92.3684 154.439 89.9638L153.459 89.7683C153.684 88.6411 153.799 87.4868 153.8 86.3204V82.3484H154.8V74.4034H153.8V66.4584H154.8V58.5134H153.8V50.5684H154.8V42.6234H153.8V38.6525C153.799 37.7321 153.725 36.8176 153.583 35.9169L154.57 35.7604C154.267 33.8455 153.667 31.9891 152.793 30.2588L151.9 30.7099C151.489 29.8959 151.013 29.1114 150.476 28.3642C149.938 27.617 149.346 26.9164 148.705 26.2673L149.417 25.5648C148.055 24.185 146.486 23.0256 144.767 22.1287L144.304 23.0152C143.496 22.5933 142.652 22.2327 141.78 21.9384L141.778 21.9375L138.108 20.6875L138.43 19.7409L131.09 17.2409L130.768 18.1875L123.428 15.6875L123.75 14.7409L116.41 12.2409L116.088 13.1875L108.748 10.6875L109.07 9.74094L101.73 7.24094L101.408 8.18754L94.0676 5.68754L94.39 4.74094L87.05 2.24094L86.7276 3.18754L83.0585 1.93784L0 82.3484ZM0 82.3484V74.4034H1V66.4584H0V58.5134H1V50.5684H0V42.6234H1V38.6514C1.00082 37.7323 1.0733 36.819 1.21494 35.9193L0.227104 35.7638C0.528241 33.851 1.12524 31.9963 1.99649 30.2669L2.88955 30.7169C3.29938 29.9034 3.77334 29.1192 4.30893 28.3721C4.84451 27.625 5.435 26.9243 6.07382 26.275L5.36097 25.5737C6.719 24.1933 8.28378 23.0324 9.99867 22.133L10.4631 23.0186C11.2698 22.5956 12.1116 22.2336 12.9819 21.9377L12.9824 21.9375L16.6524 20.6875L16.33 19.7409L23.67 17.2409L23.9924 18.1875L31.3324 15.6875L31.01 14.7409L38.35 12.2409L38.6724 13.1875L46.0124 10.6875L45.69 9.74094L53.03 7.24094L53.3524 8.18754L60.6924 5.68754L60.37 4.74094L67.71 2.24094L68.0324 3.18754L71.7015 1.93784L0 82.3484ZM80.4206 0.249376C78.4073 -0.0831254 76.3527 -0.0831254 74.3394 0.249376L74.5023 1.23601C73.5562 1.39226 72.6197 1.6261 71.7024 1.93754L80.4206 0.249376ZM80.4206 0.249376L80.2577 1.23601C81.2038 1.39226 82.1403 1.6261 83.0576 1.93754L80.4206 0.249376Z" stroke="#1B383C" stroke-width="2" stroke-dasharray="8 8"/>
<path d="M114.93 38.9912C115.272 47.2345 115.088 55.4913 114.38 63.7112C113.78 70.7112 112.27 78.5812 107.48 81.7112C105.604 82.7566 103.506 83.3393 101.36 83.4112C86.4068 84.9858 71.3359 85.103 56.36 83.7612C52.45 83.4112 48.36 82.8812 45.08 80.0612C40.39 75.9912 38.43 68.2312 38 60.9312C37.57 53.6312 38.3 46.2412 37.54 38.9912C63.314 40.5204 89.156 40.5204 114.93 38.9912Z" fill="#D9D9D9" stroke="#1B383C" stroke-width="2" stroke-miterlimit="10"/>
<path d="M116.77 39.1709C116.45 40.1709 100.31 39.8509 98.62 39.9009C92.32 40.0742 86.02 40.1642 79.72 40.1709C68.34 40.1709 56.9634 39.8875 45.59 39.3209C43.59 39.2209 32.15 39.9309 35.01 36.0709C36.92 33.4909 46.61 34.9909 49.56 34.9909H51.87C50 31.2009 62.55 31.8509 64.61 31.8009L95.2 30.9909C97.4357 30.8089 99.6861 30.9981 101.86 31.5509C102.751 31.8046 103.58 32.2416 104.293 32.834C105.006 33.4263 105.587 34.161 106 34.9909L117 35.1609C117.231 36.4975 117.152 37.8694 116.77 39.1709Z" fill="#FF9820" stroke="#1B383C" stroke-width="2" stroke-miterlimit="10"/>
<path d="M75.0801 35.1113C80.6534 35.1647 86.2234 35.1647 91.7901 35.1113" stroke="#1B383C" stroke-width="2" stroke-miterlimit="10" stroke-linecap="round"/>
<path d="M63.2099 50.2514C62.1623 51.9515 61.5764 53.8955 61.5099 55.8914C61.2138 58.3555 61.6484 60.8523 62.7599 63.0714C63.9399 65.1614 66.2099 66.5714 68.3399 65.9914C70.8999 65.2814 72.3399 62.1814 73.1499 59.3214C73.9145 57.1206 74.1609 54.773 73.8699 52.4614C72.8099 46.8314 66.1299 45.9914 63.2099 50.2514Z" fill="white" stroke="#1B383C" stroke-width="2" stroke-miterlimit="10"/>
<path d="M81.7901 51.6013C80.8497 54.475 80.556 57.5209 80.9301 60.5213C81.1501 62.3213 81.7001 64.2213 83.0601 65.3113C83.7256 65.8022 84.5136 66.1001 85.3375 66.1724C86.1613 66.2448 86.9891 66.0887 87.7301 65.7213C89.2215 64.9403 90.4391 63.7227 91.2201 62.2313C92.0675 60.8651 92.6052 59.3298 92.7952 57.7333C92.9853 56.1369 92.8231 54.5183 92.3201 52.9913C90.6301 48.5913 83.6001 46.1213 81.7901 51.6013Z" fill="white" stroke="#1B383C" stroke-width="2" stroke-miterlimit="10"/>
<path d="M68.2501 53.2207C68.5909 52.9231 68.9946 52.7065 69.431 52.587C69.8674 52.4675 70.3252 52.4483 70.7701 52.5307C71.1455 52.6602 71.4872 52.872 71.7701 53.1507C72.2067 53.5422 72.5486 54.0277 72.7701 54.5707C73.0119 55.2427 73.1118 55.9575 73.0637 56.67C73.0155 57.3826 72.8202 58.0774 72.4901 58.7107C68.4901 66.6407 63.0901 57.2007 68.2501 53.2207Z" fill="#1B383C" stroke="#1B383C" stroke-width="2" stroke-miterlimit="10"/>
<path d="M86.94 53.2207C87.2808 52.9231 87.6845 52.7065 88.1209 52.587C88.5573 52.4675 89.0151 52.4483 89.46 52.5307C89.8533 52.6533 90.2127 52.8655 90.51 53.1507C90.9471 53.5417 91.2892 54.0274 91.51 54.5707C91.7557 55.2416 91.8587 55.9563 91.8122 56.6692C91.7657 57.3821 91.5708 58.0775 91.24 58.7107C87.18 66.6407 81.77 57.2007 86.94 53.2207Z" fill="#1B383C" stroke="#1B383C" stroke-width="2" stroke-miterlimit="10"/>
<path d="M73.0801 71.6309C73.224 72.4259 73.5964 73.1618 74.1517 73.7487C74.707 74.3356 75.4212 74.7481 76.207 74.9359C76.9929 75.1236 77.8164 75.0784 78.577 74.8058C79.3376 74.5332 80.0023 74.045 80.4901 73.4009" stroke="#1B383C" stroke-width="2" stroke-miterlimit="10" stroke-linecap="round"/>
<path d="M47.2802 81.4707C45.2002 81.4707 43.2802 82.5307 41.4302 83.4707C37.1435 85.7374 32.7402 87.7974 28.2202 89.6507C27.2166 90.1724 26.0887 90.4076 24.9602 90.3307C23.0002 89.9907 21.8502 87.9907 20.2002 86.9107" stroke="#1B383C" stroke-width="2" stroke-miterlimit="10" stroke-linecap="round"/>
<path d="M106.31 81.8809C108.31 81.8809 110.05 83.0609 111.71 84.1709C115.636 86.7871 119.739 89.1261 123.99 91.1709C125.45 91.8709 127.09 92.5609 128.65 92.1109C130.21 91.6609 131.39 89.9909 132.28 88.4809" stroke="#1B383C" stroke-width="2" stroke-miterlimit="10" stroke-linecap="round"/>
<path d="M114.86 55.6709C116.987 57.2689 118.757 59.2932 120.057 61.6143C121.357 63.9355 122.158 66.5024 122.41 69.1509C122.72 72.5609 122.1 76.0609 122.88 79.3909" stroke="#1B383C" stroke-width="2" stroke-miterlimit="10" stroke-linecap="round"/>
<path d="M37.3601 58.251C35.5693 58.9423 34.0193 60.1413 32.9001 61.701C30.6401 64.851 30.4601 69.001 30.3501 72.881L30.1401 80.991" stroke="#1B383C" stroke-width="2" stroke-miterlimit="10" stroke-linecap="round"/>
</svg>
