<svg width="180" height="93" viewBox="0 0 180 93" fill="none" xmlns="http://www.w3.org/2000/svg">
<g clip-path="url(#clip0_1495_1308)">
<path d="M8.48996 45.25C9.99996 51 8.56996 56.92 8.29996 62.78C8.02996 68.64 9.29996 75.07 14.84 79.06C19.4 82.32 25.91 83.28 32.08 83.84C49.08 85.37 66.19 84.9 83.25 84.33C91.81 84.04 101.8 83.1 106.13 77.33C108.45 74.26 108.5 70.51 108.49 66.96C108.45 58.96 108.417 50.96 108.39 42.96C75.29 43 41.54 43.82 8.48996 45.25Z" fill="#D9D9D9" stroke="#1B383C" stroke-width="2" stroke-miterlimit="10"/>
<path d="M144.31 1H135.6C132.739 1 130.42 3.31916 130.42 6.18V86.42C130.42 89.2808 132.739 91.6 135.6 91.6H144.31C147.171 91.6 149.49 89.2808 149.49 86.42V6.18C149.49 3.31916 147.171 1 144.31 1Z" fill="#D9D9D9" stroke="#1B383C" stroke-width="2" stroke-miterlimit="10"/>
<path d="M172.92 46.2998H164.21C161.349 46.2998 159.03 48.619 159.03 51.4798V86.4198C159.03 89.2806 161.349 91.5998 164.21 91.5998H172.92C175.781 91.5998 178.1 89.2806 178.1 86.4198V51.4798C178.1 48.619 175.781 46.2998 172.92 46.2998Z" fill="#FF9820" stroke="#1B383C" stroke-width="2" stroke-miterlimit="10"/>
<path d="M144.55 14.65C150.37 12.65 157.16 10.78 162.34 14.1C165.43 16.1 167.23 19.54 168.4 23.02C169.668 26.8169 170.343 30.7871 170.4 34.79" stroke="#1B383C" stroke-width="2" stroke-miterlimit="10" stroke-linecap="round"/>
<path d="M165.26 31C167.291 31.5077 169.1 32.6668 170.41 34.3C171.75 32.84 173.02 31.3 174.21 29.75" stroke="#1B383C" stroke-width="2" stroke-miterlimit="10" stroke-linecap="round"/>
<path d="M59.7101 65.4997C60.0814 66.7316 60.8744 67.7937 61.9501 68.4997C63.5501 69.3397 65.5201 68.6197 66.9501 67.4997C70.6201 64.4997 71.7101 59.0897 71.1601 54.2597C71.1277 53.641 70.9605 53.0369 70.6701 52.4897C68.8101 49.4897 63.2601 49.8197 61.2301 52.1997C58.3101 55.5297 58.1701 61.5097 59.7101 65.4997Z" fill="white" stroke="#1B383C" stroke-width="2" stroke-miterlimit="10" stroke-linecap="round"/>
<path d="M62.9998 58.9999C62.8477 60.4378 63.1446 61.8876 63.8498 63.1499C64.1943 63.7548 64.7348 64.2242 65.382 64.4805C66.0292 64.7369 66.7445 64.7649 67.4098 64.5599C68.7598 63.9999 69.3298 62.3599 69.7498 60.8999C70.4298 58.5199 72.1298 53.7899 68.8798 52.5899C65.1498 51.2199 63.0998 56.0499 62.9998 58.9999Z" fill="#1B383C" stroke="#1B383C" stroke-width="2" stroke-miterlimit="10"/>
<path d="M78.5302 54.4096C77.1302 56.9996 77.0902 60.0896 77.3202 62.9996C77.3357 64.2271 77.6516 65.4322 78.2402 66.5096C78.8612 67.3491 79.7395 67.9627 80.7414 68.2569C81.7433 68.5512 82.8139 68.51 83.7902 68.1396C84.7581 67.7412 85.6348 67.1501 86.3671 66.4023C87.0995 65.6545 87.6721 64.7656 88.0502 63.7896C88.7986 61.8225 89.2371 59.7512 89.3502 57.6496C89.6281 56.1248 89.5075 54.5541 89.0002 53.0896C86.8902 48.4996 80.3302 51.0596 78.5302 54.4096Z" fill="white" stroke="#1B383C" stroke-width="2" stroke-miterlimit="10" stroke-linecap="round"/>
<path d="M82.4199 57.1301C81.8771 58.4827 81.824 59.9825 82.2699 61.3701C82.5035 62.0522 82.9529 62.6398 83.5501 63.0439C84.1473 63.4481 84.8598 63.6468 85.5799 63.6101C86.0902 63.5154 86.5727 63.3072 86.9916 63.0008C87.4105 62.6944 87.7551 62.2977 87.9999 61.8401C88.4767 60.9039 88.7719 59.886 88.8699 58.8401C88.9915 57.9981 89.0683 57.1502 89.0999 56.3001C89.3199 50.5501 83.5899 53.7501 82.4199 57.1301Z" fill="#1B383C" stroke="#1B383C" stroke-width="2" stroke-miterlimit="10"/>
<path d="M52.11 72.2305C52.0463 73.2412 52.2629 74.2499 52.736 75.1454C53.209 76.0409 53.9201 76.7884 54.7909 77.3055C55.6617 77.8226 56.6584 78.0892 57.671 78.076C58.6837 78.0627 59.673 77.7702 60.53 77.2305" stroke="#1B383C" stroke-width="2" stroke-miterlimit="10"/>
<path d="M114.26 41.0001C112.98 42.2301 111 42.2901 109.26 42.2701C105.26 42.2701 101.26 42.4601 97.26 42.3201C71.7 41.4401 46.12 43.0701 20.62 45.1401C14.39 45.6401 7.92 46.1401 2.05 44.0001C0.209999 42.3101 1.19 39.0001 3.28 37.6101C5.37 36.2201 8 36.2801 10.47 36.3201C16.17 36.4101 21.87 36.4101 27.57 36.3901C26.92 34.8501 27.2 32.9801 27.21 30.7901C27.1481 30.2293 27.2901 29.6649 27.61 29.2001C27.8483 28.9968 28.1254 28.8441 28.4245 28.7513C28.7236 28.6585 29.0385 28.6274 29.35 28.6601C36.45 28.4401 43.56 28.6601 50.66 28.8201L71.81 29.4001L87.27 29.8101C88.7231 29.7586 90.1725 29.986 91.54 30.4801C92.1191 30.7035 92.6408 31.0539 93.0665 31.5056C93.4923 31.9573 93.8112 32.4988 94 33.0901C97.6 32.8834 101.18 32.7134 104.74 32.5801C107.52 32.4801 110.5 32.4401 112.84 33.9301C115.18 35.4201 116.27 39.1001 114.26 41.0001Z" fill="#FF9820" stroke="#1B383C" stroke-width="2" stroke-miterlimit="10"/>
<path d="M36.3901 36.73C41.7235 36.6233 47.0568 36.3666 52.3901 35.96" stroke="#1B383C" stroke-width="2" stroke-miterlimit="10"/>
</g>
<defs>
<clipPath id="clip0_1495_1308">
<rect width="179.1" height="92.6" fill="white"/>
</clipPath>
</defs>
</svg>
