<svg width="124" height="92" viewBox="0 0 124 92" fill="none" xmlns="http://www.w3.org/2000/svg">
<path d="M0 10C0 4.47715 4.47715 0 10 0H66C71.5229 0 76 4.47715 76 10V71C76 73.2091 74.2091 75 72 75H4C1.79086 75 0 73.2091 0 71V10Z" fill="#FFB45C"/>
<path d="M81.5 34V75H119.5C121.709 75 123.5 73.2091 123.5 71V51.8995C123.5 50.043 122.763 48.2625 121.45 46.9497L103.55 29.0503C102.237 27.7375 100.457 27 98.6005 27H88.5C84.634 27 81.5 30.134 81.5 34Z" fill="#FFB45C"/>
<path d="M93 48.5H110.615C113.307 48.5 114.637 45.2275 112.707 43.3498L100.373 31.3498C99.8134 30.8049 99.0628 30.5 98.2814 30.5H93C91.3431 30.5 90 31.8431 90 33.5V45.5C90 47.1569 91.3431 48.5 93 48.5Z" fill="#1C383C"/>
<circle cx="25" cy="79" r="11.5" fill="#1C383C" stroke="white" stroke-width="3"/>
<circle cx="102" cy="79" r="11.5" fill="#1C383C" stroke="white" stroke-width="3"/>
</svg>
