<svg width="124" height="92" viewBox="0 0 124 92" fill="none" xmlns="http://www.w3.org/2000/svg">
<path d="M0 10C0 4.47715 4.47715 0 10 0H66C71.5229 0 76 4.47715 76 10V71C76 73.2091 74.2091 75 72 75H4C1.79086 75 0 73.2091 0 71V10Z" fill="#FF9820"/>
<path d="M81.5005 34V75H119.5C121.71 75 123.5 73.2091 123.5 71V51.8995C123.5 50.043 122.763 48.2625 121.45 46.9497L103.551 29.0503C102.238 27.7375 100.458 27 98.601 27H88.5005C84.6345 27 81.5005 30.134 81.5005 34Z" fill="#FF9820"/>
<path d="M93.0005 48.5H110.615C113.308 48.5 114.637 45.2275 112.707 43.3498L100.374 31.3498C99.8139 30.8049 99.0633 30.5 98.2819 30.5H93.0005C91.3436 30.5 90.0005 31.8431 90.0005 33.5V45.5C90.0005 47.1569 91.3436 48.5 93.0005 48.5Z" fill="#1C383C"/>
<circle cx="25" cy="79" r="11.5" fill="#1C383C" stroke="white" stroke-width="3"/>
<circle cx="102" cy="79" r="11.5" fill="#1C383C" stroke="white" stroke-width="3"/>
</svg>
