<svg width="13" height="11" viewBox="0 0 13 11" fill="none" xmlns="http://www.w3.org/2000/svg">
<path fill-rule="evenodd" clip-rule="evenodd" d="M13.0033 1.30279C12.5242 1.52295 12.0101 1.67242 11.4708 1.73907C12.0217 1.3957 12.4446 0.850349 12.6425 0.201983C12.1265 0.521116 11.5561 0.751377 10.9489 0.876607C10.462 0.337312 9.76946 0 9.00125 0C7.52885 0 6.33386 1.24422 6.33386 2.77727C6.33386 2.99541 6.35714 3.20749 6.40369 3.40947C4.18636 3.29434 2.22121 2.18748 0.905945 0.506978C0.677034 0.917003 0.545119 1.39368 0.545119 1.90268C0.545119 2.86614 1.01652 3.71649 1.73235 4.21337C1.29587 4.19923 0.884606 4.074 0.52378 3.86596C0.52378 3.87808 0.52378 3.88817 0.52378 3.90029C0.52378 5.2455 1.4433 6.36853 2.66352 6.62303C2.44043 6.68564 2.20376 6.71998 1.96126 6.71998C1.78861 6.71998 1.62178 6.7018 1.45882 6.66948C1.79831 7.77231 2.78379 8.5762 3.94969 8.59842C3.03598 9.34374 1.88755 9.7881 0.636295 9.7881C0.420964 9.7881 0.209512 9.77396 0 9.74972C1.17947 10.5375 2.58204 10.998 4.08936 10.998C8.99543 10.998 11.6784 6.76643 11.6784 3.0964C11.6784 2.97521 11.6764 2.85604 11.6706 2.73687C12.1924 2.34502 12.6444 1.85622 13.0014 1.29875L13.0033 1.30279Z" fill="#1C383C"/>
</svg>
