<svg width="129" height="76" viewBox="0 0 129 76" fill="none" xmlns="http://www.w3.org/2000/svg">
<path d="M74.8858 3.34668L126.762 33.4947L114.302 51.6371C113.118 53.3619 110.804 53.8824 108.995 52.831L67.0598 28.46C65.2632 27.4159 64.5653 25.17 65.4537 23.2915L74.8858 3.34668Z" fill="#1C383C"/>
<path d="M126.762 33.4951L74.8858 3.34721L78.5043 0.972898L126.824 29.0542L126.762 33.4951Z" fill="#FFB45C"/>
<path d="M0 33.6855H99L96.0856 72.3011C95.9282 74.3875 94.1893 76.0001 92.097 76.0001H7.26751C5.18956 76.0001 3.45765 74.409 3.28185 72.3385L0 33.6855Z" fill="#1C383C"/>
<path d="M99 33.6855H0L3.19355 27.2984H95.4073L99 33.6855Z" fill="#FFB45C"/>
</svg>
